<svg width="18" height="19" viewBox="0 0 18 19" fill="none" xmlns="http://www.w3.org/2000/svg">
<path d="M0.773438 1.61328C0.773438 1.31491 0.891964 1.02876 1.10294 0.817786C1.31392 0.606808 1.60007 0.488281 1.89844 0.488281C2.19681 0.488281 2.48295 0.606808 2.69393 0.817786C2.90491 1.02876 3.02344 1.31491 3.02344 1.61328V6.25578L7.03294 2.24628C8.16226 1.14176 9.68161 0.527156 11.2613 0.535855C12.8409 0.544554 14.3534 1.17585 15.4705 2.29275C16.5876 3.40964 17.2191 4.92202 17.2281 6.50166C17.2371 8.0813 16.6228 9.60076 15.5184 10.7303L8.09344 18.1553C7.99045 18.2658 7.86624 18.3545 7.72825 18.416C7.59025 18.4774 7.44128 18.5105 7.29022 18.5132C7.13917 18.5158 6.98912 18.488 6.84904 18.4315C6.70896 18.3749 6.58171 18.2907 6.47488 18.1838C6.36805 18.077 6.28383 17.9498 6.22725 17.8097C6.17067 17.6696 6.14289 17.5196 6.14555 17.3685C6.14822 17.2174 6.18128 17.0685 6.24277 16.9305C6.30425 16.7925 6.39291 16.6683 6.50344 16.5653L13.9284 9.14028C14.2767 8.79202 14.553 8.37856 14.7414 7.92353C14.9299 7.4685 15.0269 6.9808 15.0269 6.48828C15.0269 5.99576 14.9299 5.50806 14.7414 5.05303C14.553 4.598 14.2767 4.18455 13.9284 3.83628C13.5802 3.48802 13.1667 3.21176 12.7117 3.02328C12.2567 2.8348 11.769 2.73779 11.2764 2.73779C10.7839 2.73779 10.2962 2.8348 9.84119 3.02328C9.38616 3.21176 8.9727 3.48802 8.62444 3.83628L5.22244 7.23828H8.64844C8.94681 7.23828 9.23295 7.35681 9.44393 7.56779C9.65491 7.77876 9.77344 8.06491 9.77344 8.36328C9.77344 8.66165 9.65491 8.9478 9.44393 9.15878C9.23295 9.36975 8.94681 9.48828 8.64844 9.48828H2.04844C1.71029 9.48828 1.38599 9.35395 1.14688 9.11484C0.907768 8.87573 0.773438 8.55143 0.773438 8.21328V1.61328Z" fill="#292929"/>
</svg>
