<svg width="22" height="23" viewBox="0 0 22 23" fill="none" xmlns="http://www.w3.org/2000/svg">
<path fill-rule="evenodd" clip-rule="evenodd" d="M12.5337 3.642L13.4977 4.606C13.6343 4.74752 13.7098 4.937 13.708 5.13365C13.7062 5.3303 13.6272 5.51837 13.4881 5.65736C13.349 5.79635 13.1608 5.87514 12.9642 5.87676C12.7675 5.87837 12.5781 5.80269 12.4367 5.666L11.4727 4.702L10.4127 5.762L12.0827 7.434C12.2152 7.57617 12.2873 7.76422 12.2839 7.95852C12.2804 8.15282 12.2017 8.33821 12.0643 8.47562C11.9269 8.61304 11.7415 8.69175 11.5472 8.69518C11.3529 8.6986 11.1649 8.62648 11.0227 8.494L9.3517 6.824L8.2907 7.884L9.2547 8.848C9.32637 8.91715 9.38354 8.99988 9.42289 9.09137C9.46224 9.18285 9.48298 9.28126 9.48389 9.38084C9.4848 9.48042 9.46587 9.57919 9.4282 9.67138C9.39054 9.76357 9.33489 9.84734 9.2645 9.91779C9.19411 9.98824 9.1104 10.044 9.01825 10.0817C8.92609 10.1195 8.82734 10.1385 8.72776 10.1377C8.62817 10.1369 8.52975 10.1162 8.43823 10.077C8.34671 10.0377 8.26392 9.9806 8.1947 9.909L7.2297 8.945L6.1697 10.005L7.8397 11.677C7.91339 11.7457 7.97249 11.8285 8.01348 11.9205C8.05448 12.0125 8.07652 12.1118 8.07829 12.2125C8.08007 12.3132 8.06155 12.4132 8.02383 12.5066C7.9861 12.6 7.92996 12.6848 7.85874 12.756C7.78752 12.8273 7.70269 12.8834 7.6093 12.9211C7.51591 12.9588 7.41588 12.9774 7.31518 12.9756C7.21448 12.9738 7.11516 12.9518 7.02316 12.9108C6.93117 12.8698 6.84837 12.8107 6.7797 12.737L5.1087 11.067L4.0487 12.127L5.0117 13.091C5.08539 13.1597 5.14449 13.2425 5.18548 13.3345C5.22648 13.4265 5.24852 13.5258 5.25029 13.6265C5.25207 13.7272 5.23355 13.8272 5.19583 13.9206C5.1581 14.014 5.10196 14.0988 5.03074 14.17C4.95952 14.2413 4.87469 14.2974 4.7813 14.3351C4.68791 14.3728 4.58788 14.3914 4.48718 14.3896C4.38648 14.3878 4.28716 14.3658 4.19517 14.3248C4.10317 14.2838 4.02037 14.2247 3.9517 14.151L2.9877 13.188C2.5237 13.657 2.1887 14.009 1.9537 14.318C1.6637 14.698 1.5957 14.922 1.5957 15.116C1.5957 15.309 1.6637 15.533 1.9537 15.913C2.2567 16.311 2.7237 16.781 3.4217 17.478L4.8677 18.924C5.5647 19.621 6.0347 20.089 6.4327 20.392C6.8127 20.682 7.0367 20.75 7.2297 20.75C7.4227 20.75 7.6477 20.682 8.0277 20.392C8.4247 20.089 8.8957 19.622 9.5917 18.924L18.2697 10.247C18.9667 9.55 19.4347 9.079 19.7377 8.682C20.0277 8.302 20.0957 8.078 20.0957 7.884C20.0957 7.691 20.0277 7.467 19.7377 7.087C19.4347 6.689 18.9677 6.219 18.2697 5.522L16.8237 4.076C16.1267 3.379 15.6567 2.911 15.2587 2.608C14.8787 2.318 14.6547 2.25 14.4617 2.25C14.2687 2.25 14.0437 2.318 13.6637 2.608C13.3547 2.843 13.0027 3.178 12.5337 3.642ZM12.7537 1.415C13.2677 1.023 13.8077 0.75 14.4617 0.75C15.1157 0.75 15.6557 1.023 16.1687 1.415C16.6557 1.787 17.1967 2.328 17.8477 2.978L19.3677 4.498C20.0177 5.148 20.5587 5.69 20.9307 6.177C21.3227 6.69 21.5957 7.231 21.5957 7.884C21.5957 8.538 21.3227 9.078 20.9307 9.592C20.5587 10.079 20.0177 10.62 19.3677 11.27L10.6157 20.022C9.9657 20.672 9.4247 21.213 8.9377 21.585C8.4237 21.977 7.8837 22.25 7.2297 22.25C6.5757 22.25 6.0357 21.977 5.5227 21.585C5.0357 21.213 4.4947 20.672 3.8437 20.022L2.3237 18.502C1.6737 17.852 1.1327 17.31 0.760703 16.823C0.368703 16.31 0.0957031 15.769 0.0957031 15.116C0.0957031 14.462 0.368703 13.922 0.760703 13.408C1.1327 12.921 1.6737 12.38 2.3237 11.73L11.0757 2.978C11.7257 2.328 12.2667 1.787 12.7537 1.415Z" fill="black"/>
</svg>
