<svg width="19" height="19" viewBox="0 0 19 19" fill="none" xmlns="http://www.w3.org/2000/svg">
<path d="M12.5206 8.14961L13.0646 8.76136H6.12665L6.67007 8.14956L6.67014 8.14962L6.67326 8.14582C6.79426 7.9983 6.85348 7.80968 6.83852 7.61947C6.82356 7.42926 6.73557 7.25223 6.593 7.12544C6.45043 6.99865 6.26432 6.93195 6.07367 6.93931C5.88302 6.94666 5.70261 7.02751 5.57023 7.16491L5.57016 7.16484L5.56682 7.16859L3.93046 9.0095L3.93042 9.00955C3.81038 9.14472 3.74408 9.31922 3.74408 9.5C3.74408 9.68078 3.81038 9.85528 3.93042 9.99045L3.93046 9.9905L5.56525 11.8296C5.62805 11.9057 5.70543 11.9683 5.79285 12.014C5.88103 12.06 5.97761 12.0878 6.07679 12.0956C6.17596 12.1034 6.27569 12.0911 6.36999 12.0594C6.46429 12.0277 6.55121 11.9773 6.62555 11.9112C6.69989 11.8451 6.76011 11.7646 6.80259 11.6747C6.84508 11.5847 6.86896 11.4871 6.87279 11.3877C6.87663 11.2883 6.86034 11.1891 6.82492 11.0962C6.78981 11.004 6.73661 10.9199 6.66846 10.8486L6.12665 10.2386H13.0648L12.5213 10.8504L12.5213 10.8504L12.5181 10.8542C12.3971 11.0017 12.3379 11.1903 12.3529 11.3805C12.3678 11.5707 12.4558 11.7478 12.5984 11.8746C12.741 12.0014 12.9271 12.0681 13.1177 12.0607C13.3084 12.0533 13.4888 11.9725 13.6212 11.8351L13.6212 11.8352L13.6246 11.8314L15.2597 9.99192L15.2609 9.9905L15.2687 9.9821L15.2687 9.98215L15.2713 9.97909C15.3881 9.8432 15.4512 9.66935 15.4488 9.49021C15.4465 9.31129 15.379 9.13937 15.259 9.00666C15.2588 9.0065 15.2587 9.00633 15.2585 9.00617L13.6255 7.16865C13.6254 7.16863 13.6254 7.16862 13.6254 7.1686C13.4953 7.0221 13.3124 6.93327 13.1168 6.92164C12.9213 6.91 12.7291 6.97654 12.5825 7.10661C12.436 7.23668 12.3472 7.41963 12.3355 7.61522C12.3239 7.8108 12.3904 8.003 12.5205 8.14953L12.5206 8.14961ZM3.66388 0.375C2.817 0.375 2.0048 0.711424 1.40596 1.31026C0.807127 1.9091 0.470703 2.7213 0.470703 3.56818V15.4318C0.470703 16.2787 0.807127 17.0909 1.40596 17.6897C2.0048 18.2886 2.817 18.625 3.66388 18.625H15.5275C16.3744 18.625 17.1866 18.2886 17.7854 17.6897C18.3843 17.0909 18.7207 16.2787 18.7207 15.4318V3.56818C18.7207 2.7213 18.3843 1.9091 17.7854 1.31026C17.1866 0.711424 16.3744 0.375 15.5275 0.375H3.66388ZM15.5275 1.85227C15.9826 1.85227 16.4191 2.03306 16.7409 2.35485C17.0626 2.67665 17.2434 3.11309 17.2434 3.56818V4.05682H1.94798V3.56818C1.94798 3.11309 2.12876 2.67665 2.45055 2.35485C2.77235 2.03306 3.2088 1.85227 3.66388 1.85227H15.5275ZM1.94798 5.53409H17.2434V13.4659H1.94798V5.53409ZM1.94798 15.4318V14.9432H17.2434V15.4318C17.2434 15.8869 17.0626 16.3234 16.7409 16.6451C16.4191 16.9669 15.9826 17.1477 15.5275 17.1477H3.66388C3.2088 17.1477 2.77235 16.9669 2.45055 16.6451C2.12876 16.3234 1.94798 15.8869 1.94798 15.4318Z" fill="#292929" stroke="#292929" stroke-width="0.25"/>
</svg>
