<svg width="19" height="19" viewBox="0 0 19 19" fill="none" xmlns="http://www.w3.org/2000/svg">
<path d="M1.71289 11.5V17.5H7.71289V11.5H1.71289ZM6.21289 7.5H13.2129L9.71289 1.5L6.21289 7.5ZM14.2129 17.5C14.6725 17.5 15.1276 17.4095 15.5523 17.2336C15.9769 17.0577 16.3628 16.7999 16.6878 16.4749C17.0128 16.1499 17.2706 15.764 17.4465 15.3394C17.6224 14.9148 17.7129 14.4596 17.7129 14C17.7129 13.5404 17.6224 13.0852 17.4465 12.6606C17.2706 12.236 17.0128 11.8501 16.6878 11.5251C16.3628 11.2001 15.9769 10.9423 15.5523 10.7664C15.1276 10.5905 14.6725 10.5 14.2129 10.5C13.2846 10.5 12.3944 10.8687 11.738 11.5251C11.0816 12.1815 10.7129 13.0717 10.7129 14C10.7129 14.9283 11.0816 15.8185 11.738 16.4749C12.3944 17.1313 13.2846 17.5 14.2129 17.5Z" stroke="black" stroke-width="2" stroke-linejoin="round"/>
</svg>
