<svg width="19" height="19" viewBox="0 0 19 19" fill="none" xmlns="http://www.w3.org/2000/svg">
<path d="M2.64258 18.5C2.09258 18.5 1.62191 18.3043 1.23058 17.913C0.839245 17.5217 0.643245 17.0507 0.642578 16.5V2.5C0.642578 1.95 0.838578 1.47933 1.23058 1.088C1.62258 0.696667 2.09324 0.500667 2.64258 0.5H16.6426C17.1926 0.5 17.6636 0.696 18.0556 1.088C18.4476 1.48 18.6432 1.95067 18.6426 2.5V16.5C18.6426 17.05 18.4469 17.521 18.0556 17.913C17.6642 18.305 17.1932 18.5007 16.6426 18.5H2.64258ZM2.64258 16.5H16.6426V2.5H2.64258V16.5ZM3.64258 14.5H15.6426L11.8926 9.5L8.89258 13.5L6.64258 10.5L3.64258 14.5ZM6.14258 7.5C6.55924 7.5 6.91358 7.35433 7.20558 7.063C7.49758 6.77167 7.64324 6.41733 7.64258 6C7.64191 5.58267 7.49624 5.22867 7.20558 4.938C6.91491 4.64733 6.56058 4.50133 6.14258 4.5C5.72458 4.49867 5.37058 4.64467 5.08058 4.938C4.79058 5.23133 4.64458 5.58533 4.64258 6C4.64058 6.41467 4.78658 6.769 5.08058 7.063C5.37458 7.357 5.72858 7.50267 6.14258 7.5Z" fill="#292929"/>
</svg>
