<svg width="19" height="21" viewBox="0 0 19 21" fill="none" xmlns="http://www.w3.org/2000/svg">
<path fill-rule="evenodd" clip-rule="evenodd" d="M9.4914 3.18889C8.08458 3.18744 6.72475 3.69509 5.66304 4.61809C4.60134 5.54109 3.90948 6.81709 3.71524 8.21043C3.52099 9.60378 3.83749 11.0203 4.60627 12.1985C5.37506 13.3767 6.5442 14.2369 7.89778 14.6203C8.55387 14.8067 9.04325 15.409 9.04325 16.1332V17.7537C9.04325 18.1697 8.87799 18.5687 8.58384 18.8629C8.28968 19.157 7.89072 19.3223 7.47473 19.3223H4.11361C3.75704 19.3223 3.41507 19.1806 3.16294 18.9285C2.91081 18.6764 2.76916 18.3344 2.76916 17.9778C2.76916 17.6212 2.91081 17.2793 3.16294 17.0272C3.41507 16.775 3.75704 16.6334 4.11361 16.6334H5.68571C4.27053 15.9263 3.0803 14.839 2.24852 13.4933C1.41673 12.1476 0.976283 10.5968 0.976563 9.01483C0.976563 6.75656 1.87366 4.59078 3.4705 2.99394C5.06734 1.3971 7.23312 0.5 9.4914 0.5C11.7497 0.5 13.9155 1.3971 15.5123 2.99394C17.1091 4.59078 18.0062 6.75656 18.0062 9.01483C18.0065 10.5968 17.5661 12.1476 16.7343 13.4933C15.9025 14.839 14.7123 15.9263 13.2971 16.6334H14.8692C15.2258 16.6334 15.5677 16.775 15.8199 17.0272C16.072 17.2793 16.2136 17.6212 16.2136 17.9778C16.2136 18.3344 16.072 18.6764 15.8199 18.9285C15.5677 19.1806 15.2258 19.3223 14.8692 19.3223H11.5081C11.0921 19.3223 10.6931 19.157 10.399 18.8629C10.1048 18.5687 9.93955 18.1697 9.93955 17.7537V16.1332C9.93955 15.409 10.4289 14.8067 11.085 14.6203C12.4386 14.2369 13.6077 13.3767 14.3765 12.1985C15.1453 11.0203 15.4618 9.60378 15.2676 8.21043C15.0733 6.81709 14.3815 5.54109 13.3197 4.61809C12.258 3.69509 10.8982 3.18744 9.4914 3.18889Z" fill="#292929"/>
<path fill-rule="evenodd" clip-rule="evenodd" d="M10.0229 20.0017L10.013 20.0035L9.9494 20.0348L9.93148 20.0384L9.91893 20.0348L9.85529 20.0035C9.84573 20.0005 9.83856 20.002 9.83378 20.0079L9.8302 20.0169L9.81496 20.4005L9.81944 20.4184L9.82841 20.4301L9.92162 20.4964L9.93506 20.5L9.94582 20.4964L10.039 20.4301L10.0498 20.4157L10.0534 20.4005L10.0381 20.0178C10.0357 20.0082 10.0307 20.0029 10.0229 20.0017ZM10.2604 19.9004L10.2488 19.9022L10.083 19.9855L10.074 19.9945L10.0713 20.0043L10.0874 20.3898L10.0919 20.4005L10.0991 20.4068L10.2792 20.4901C10.2906 20.4931 10.2993 20.4907 10.3052 20.483L10.3088 20.4704L10.2783 19.9201C10.2754 19.9093 10.2694 19.9028 10.2604 19.9004ZM9.61957 19.9022C9.61562 19.8998 9.6109 19.899 9.60639 19.9C9.60188 19.901 9.59793 19.9037 9.59537 19.9075L9.58999 19.9201L9.55952 20.4704C9.56011 20.4812 9.56519 20.4883 9.57475 20.4919L9.5882 20.4901L9.76835 20.4068L9.77732 20.3996L9.7809 20.3898L9.79614 20.0043L9.79345 19.9936L9.78449 19.9846L9.61957 19.9022Z" stroke="white" stroke-width="0.6"/>
<path fill-rule="evenodd" clip-rule="evenodd" d="M9.4914 3.18889C8.08458 3.18744 6.72475 3.69509 5.66304 4.61809C4.60134 5.54109 3.90948 6.81709 3.71524 8.21043C3.52099 9.60378 3.83749 11.0203 4.60627 12.1985C5.37506 13.3767 6.5442 14.2369 7.89778 14.6203C8.55387 14.8067 9.04325 15.409 9.04325 16.1332V17.7537C9.04325 18.1697 8.87799 18.5687 8.58384 18.8629C8.28968 19.157 7.89072 19.3223 7.47473 19.3223H4.11361C3.75704 19.3223 3.41507 19.1806 3.16294 18.9285C2.91081 18.6764 2.76916 18.3344 2.76916 17.9778C2.76916 17.6212 2.91081 17.2793 3.16294 17.0272C3.41507 16.775 3.75704 16.6334 4.11361 16.6334H5.68571C4.27053 15.9263 3.0803 14.839 2.24852 13.4933C1.41673 12.1476 0.976283 10.5968 0.976563 9.01483C0.976563 6.75656 1.87366 4.59078 3.4705 2.99394C5.06734 1.3971 7.23312 0.5 9.4914 0.5C11.7497 0.5 13.9155 1.3971 15.5123 2.99394C17.1091 4.59078 18.0062 6.75656 18.0062 9.01483C18.0065 10.5968 17.5661 12.1476 16.7343 13.4933C15.9025 14.839 14.7123 15.9263 13.2971 16.6334H14.8692C15.2258 16.6334 15.5677 16.775 15.8199 17.0272C16.072 17.2793 16.2136 17.6212 16.2136 17.9778C16.2136 18.3344 16.072 18.6764 15.8199 18.9285C15.5677 19.1806 15.2258 19.3223 14.8692 19.3223H11.5081C11.0921 19.3223 10.6931 19.157 10.399 18.8629C10.1048 18.5687 9.93955 18.1697 9.93955 17.7537V16.1332C9.93955 15.409 10.4289 14.8067 11.085 14.6203C12.4386 14.2369 13.6077 13.3767 14.3765 12.1985C15.1453 11.0203 15.4618 9.60378 15.2676 8.21043C15.0733 6.81709 14.3815 5.54109 13.3197 4.61809C12.258 3.69509 10.8982 3.18744 9.4914 3.18889Z" stroke="white" stroke-width="0.6"/>
</svg>
