<svg width="22" height="17" viewBox="0 0 22 17" fill="none" xmlns="http://www.w3.org/2000/svg">
<mask id="path-1-inside-1_1509_4875" fill="white">
<path fill-rule="evenodd" clip-rule="evenodd" d="M5.84597 3.47693C5.85999 3.30846 5.91508 3.146 6.00643 3.00376C6.09777 2.86152 6.22259 2.74384 6.36995 2.661C6.51731 2.57817 6.68273 2.53272 6.85173 2.52862C7.02072 2.52452 7.18815 2.5619 7.33935 2.63749C7.45921 2.70503 7.59155 2.7475 7.72832 2.76234C7.8651 2.77717 8.00346 2.76406 8.13501 2.7238C8.26657 2.68353 8.38857 2.61695 8.49361 2.5281C8.59865 2.43925 8.68454 2.32999 8.74606 2.20693C8.80759 2.08388 8.84347 1.94961 8.85153 1.81227C8.85958 1.67492 8.83964 1.53738 8.79292 1.40798C8.7462 1.27857 8.67368 1.16002 8.57974 1.0595C8.48581 0.958978 8.37243 0.878596 8.24648 0.823228C7.79857 0.599428 7.30265 0.488761 6.80209 0.500901C6.30152 0.513042 5.81155 0.647621 5.37501 0.892873C4.93848 1.13812 4.56866 1.48658 4.29791 1.90778C4.02716 2.32897 3.8637 2.81008 3.82185 3.30904L3.67156 5.11518H2.3772C2.10789 5.11518 1.84961 5.22216 1.65918 5.4126C1.46874 5.60303 1.36176 5.86131 1.36176 6.13063C1.36176 6.39994 1.46874 6.65822 1.65918 6.84866C1.84961 7.03909 2.10789 7.14607 2.3772 7.14607H3.50097L2.97023 13.5231C2.95621 13.6915 2.90111 13.854 2.80977 13.9962C2.71842 14.1385 2.5936 14.2562 2.44624 14.339C2.29888 14.4218 2.13346 14.4673 1.96447 14.4714C1.79547 14.4755 1.62805 14.4381 1.47684 14.3625C1.23826 14.2576 0.96848 14.2485 0.723346 14.337C0.478212 14.4255 0.276492 14.6049 0.159939 14.838C0.0433854 15.0711 0.0209223 15.3401 0.0971988 15.5893C0.173475 15.8385 0.342652 16.0488 0.569711 16.1768C1.01762 16.4006 1.51354 16.5112 2.01411 16.4991C2.51467 16.487 3.00464 16.3524 3.44118 16.1071C3.87772 15.8619 4.24753 15.5134 4.51828 15.0922C4.78904 14.671 4.95249 14.1899 4.99435 13.691L5.53998 7.14607H7.11595C7.2493 7.14607 7.38135 7.11981 7.50455 7.06878C7.62775 7.01775 7.73969 6.94295 7.83398 6.84866C7.92828 6.75436 8.00307 6.64242 8.0541 6.51922C8.10513 6.39602 8.1314 6.26398 8.1314 6.13063C8.1314 5.99728 8.10513 5.86523 8.0541 5.74203C8.00307 5.61883 7.92828 5.50689 7.83398 5.4126C7.73969 5.3183 7.62775 5.24351 7.50455 5.19248C7.38135 5.14145 7.2493 5.11518 7.11595 5.11518H5.70787L5.84597 3.47693ZM13.9885 6.49619C13.8139 6.29667 13.5683 6.17332 13.304 6.15249C13.0397 6.13166 12.7778 6.215 12.5742 6.38471C12.3705 6.55442 12.2413 6.79703 12.2141 7.06073C12.187 7.32443 12.264 7.58829 12.4288 7.79596L13.5796 9.17696L12.4288 10.558C12.264 10.7656 12.187 11.0295 12.2141 11.2932C12.2413 11.5569 12.3705 11.7995 12.5742 11.9692C12.7778 12.1389 13.0397 12.2223 13.304 12.2014C13.5683 12.1806 13.8139 12.0573 13.9885 11.8577L14.901 10.7638L15.8136 11.8577C15.9881 12.0573 16.2338 12.1806 16.4981 12.2014C16.7623 12.2223 17.0243 12.1389 17.2279 11.9692C17.4316 11.7995 17.5608 11.5569 17.5879 11.2932C17.6151 11.0295 17.5381 10.7656 17.3733 10.558L16.2225 9.17696L17.3733 7.79596C17.5381 7.58829 17.6151 7.32443 17.5879 7.06073C17.5608 6.79703 17.4316 6.55442 17.2279 6.38471C17.0243 6.215 16.7623 6.13166 16.4981 6.15249C16.2338 6.17332 15.9881 6.29667 15.8136 6.49619L14.901 7.59016L13.9885 6.49619ZM10.8663 3.82895C11.1174 3.92583 11.3198 4.11844 11.4289 4.36444C11.5381 4.61044 11.5452 4.88972 11.4485 5.1409L11.2522 5.65269C10.3799 7.92077 10.3799 10.4318 11.2522 12.6999L11.4485 13.2117C11.5453 13.463 11.5383 13.7425 11.4289 13.9887C11.3196 14.2349 11.117 14.4275 10.8657 14.5243C10.6143 14.6211 10.3348 14.614 10.0886 14.5047C9.84246 14.3954 9.6498 14.1928 9.55302 13.9414L9.3567 13.4297C8.30389 10.6923 8.30389 7.66166 9.3567 4.92428L9.55302 4.41249C9.60086 4.28788 9.67279 4.17392 9.76471 4.07714C9.85662 3.98035 9.96672 3.90264 10.0887 3.84844C10.2107 3.79424 10.3421 3.76462 10.4756 3.76128C10.609 3.75793 10.7418 3.78093 10.8663 3.82895ZM18.9371 3.82895C19.0616 3.78089 19.1943 3.75783 19.3276 3.76109C19.461 3.76434 19.5924 3.79384 19.7144 3.84791C19.8364 3.90198 19.9465 3.97955 20.0384 4.07619C20.1304 4.17283 20.2024 4.28665 20.2504 4.41114L20.4467 4.92428C21.4995 7.66166 21.4995 10.6923 20.4467 13.4297L20.2491 13.9414C20.2027 14.0679 20.1317 14.1839 20.0401 14.2827C19.9485 14.3814 19.8382 14.461 19.7155 14.5167C19.5929 14.5724 19.4604 14.6031 19.3258 14.6071C19.1911 14.6111 19.0571 14.5883 18.9313 14.54C18.8056 14.4917 18.6907 14.4188 18.5934 14.3257C18.4961 14.2326 18.4183 14.121 18.3646 13.9975C18.3108 13.874 18.2821 13.741 18.2802 13.6064C18.2783 13.4717 18.3033 13.338 18.3536 13.213L18.5512 12.6999C19.4235 10.4318 19.4235 7.92077 18.5512 5.65269L18.3536 5.1409C18.3055 5.01637 18.2825 4.88358 18.2859 4.75015C18.2892 4.61671 18.3189 4.48525 18.373 4.36327C18.4272 4.24129 18.505 4.13119 18.6017 4.03928C18.6985 3.94736 18.8125 3.87543 18.9371 3.82759"/>
</mask>
<path fill-rule="evenodd" clip-rule="evenodd" d="M5.84597 3.47693C5.85999 3.30846 5.91508 3.146 6.00643 3.00376C6.09777 2.86152 6.22259 2.74384 6.36995 2.661C6.51731 2.57817 6.68273 2.53272 6.85173 2.52862C7.02072 2.52452 7.18815 2.5619 7.33935 2.63749C7.45921 2.70503 7.59155 2.7475 7.72832 2.76234C7.8651 2.77717 8.00346 2.76406 8.13501 2.7238C8.26657 2.68353 8.38857 2.61695 8.49361 2.5281C8.59865 2.43925 8.68454 2.32999 8.74606 2.20693C8.80759 2.08388 8.84347 1.94961 8.85153 1.81227C8.85958 1.67492 8.83964 1.53738 8.79292 1.40798C8.7462 1.27857 8.67368 1.16002 8.57974 1.0595C8.48581 0.958978 8.37243 0.878596 8.24648 0.823228C7.79857 0.599428 7.30265 0.488761 6.80209 0.500901C6.30152 0.513042 5.81155 0.647621 5.37501 0.892873C4.93848 1.13812 4.56866 1.48658 4.29791 1.90778C4.02716 2.32897 3.8637 2.81008 3.82185 3.30904L3.67156 5.11518H2.3772C2.10789 5.11518 1.84961 5.22216 1.65918 5.4126C1.46874 5.60303 1.36176 5.86131 1.36176 6.13063C1.36176 6.39994 1.46874 6.65822 1.65918 6.84866C1.84961 7.03909 2.10789 7.14607 2.3772 7.14607H3.50097L2.97023 13.5231C2.95621 13.6915 2.90111 13.854 2.80977 13.9962C2.71842 14.1385 2.5936 14.2562 2.44624 14.339C2.29888 14.4218 2.13346 14.4673 1.96447 14.4714C1.79547 14.4755 1.62805 14.4381 1.47684 14.3625C1.23826 14.2576 0.96848 14.2485 0.723346 14.337C0.478212 14.4255 0.276492 14.6049 0.159939 14.838C0.0433854 15.0711 0.0209223 15.3401 0.0971988 15.5893C0.173475 15.8385 0.342652 16.0488 0.569711 16.1768C1.01762 16.4006 1.51354 16.5112 2.01411 16.4991C2.51467 16.487 3.00464 16.3524 3.44118 16.1071C3.87772 15.8619 4.24753 15.5134 4.51828 15.0922C4.78904 14.671 4.95249 14.1899 4.99435 13.691L5.53998 7.14607H7.11595C7.2493 7.14607 7.38135 7.11981 7.50455 7.06878C7.62775 7.01775 7.73969 6.94295 7.83398 6.84866C7.92828 6.75436 8.00307 6.64242 8.0541 6.51922C8.10513 6.39602 8.1314 6.26398 8.1314 6.13063C8.1314 5.99728 8.10513 5.86523 8.0541 5.74203C8.00307 5.61883 7.92828 5.50689 7.83398 5.4126C7.73969 5.3183 7.62775 5.24351 7.50455 5.19248C7.38135 5.14145 7.2493 5.11518 7.11595 5.11518H5.70787L5.84597 3.47693ZM13.9885 6.49619C13.8139 6.29667 13.5683 6.17332 13.304 6.15249C13.0397 6.13166 12.7778 6.215 12.5742 6.38471C12.3705 6.55442 12.2413 6.79703 12.2141 7.06073C12.187 7.32443 12.264 7.58829 12.4288 7.79596L13.5796 9.17696L12.4288 10.558C12.264 10.7656 12.187 11.0295 12.2141 11.2932C12.2413 11.5569 12.3705 11.7995 12.5742 11.9692C12.7778 12.1389 13.0397 12.2223 13.304 12.2014C13.5683 12.1806 13.8139 12.0573 13.9885 11.8577L14.901 10.7638L15.8136 11.8577C15.9881 12.0573 16.2338 12.1806 16.4981 12.2014C16.7623 12.2223 17.0243 12.1389 17.2279 11.9692C17.4316 11.7995 17.5608 11.5569 17.5879 11.2932C17.6151 11.0295 17.5381 10.7656 17.3733 10.558L16.2225 9.17696L17.3733 7.79596C17.5381 7.58829 17.6151 7.32443 17.5879 7.06073C17.5608 6.79703 17.4316 6.55442 17.2279 6.38471C17.0243 6.215 16.7623 6.13166 16.4981 6.15249C16.2338 6.17332 15.9881 6.29667 15.8136 6.49619L14.901 7.59016L13.9885 6.49619ZM10.8663 3.82895C11.1174 3.92583 11.3198 4.11844 11.4289 4.36444C11.5381 4.61044 11.5452 4.88972 11.4485 5.1409L11.2522 5.65269C10.3799 7.92077 10.3799 10.4318 11.2522 12.6999L11.4485 13.2117C11.5453 13.463 11.5383 13.7425 11.4289 13.9887C11.3196 14.2349 11.117 14.4275 10.8657 14.5243C10.6143 14.6211 10.3348 14.614 10.0886 14.5047C9.84246 14.3954 9.6498 14.1928 9.55302 13.9414L9.3567 13.4297C8.30389 10.6923 8.30389 7.66166 9.3567 4.92428L9.55302 4.41249C9.60086 4.28788 9.67279 4.17392 9.76471 4.07714C9.85662 3.98035 9.96672 3.90264 10.0887 3.84844C10.2107 3.79424 10.3421 3.76462 10.4756 3.76128C10.609 3.75793 10.7418 3.78093 10.8663 3.82895ZM18.9371 3.82895C19.0616 3.78089 19.1943 3.75783 19.3276 3.76109C19.461 3.76434 19.5924 3.79384 19.7144 3.84791C19.8364 3.90198 19.9465 3.97955 20.0384 4.07619C20.1304 4.17283 20.2024 4.28665 20.2504 4.41114L20.4467 4.92428C21.4995 7.66166 21.4995 10.6923 20.4467 13.4297L20.2491 13.9414C20.2027 14.0679 20.1317 14.1839 20.0401 14.2827C19.9485 14.3814 19.8382 14.461 19.7155 14.5167C19.5929 14.5724 19.4604 14.6031 19.3258 14.6071C19.1911 14.6111 19.0571 14.5883 18.9313 14.54C18.8056 14.4917 18.6907 14.4188 18.5934 14.3257C18.4961 14.2326 18.4183 14.121 18.3646 13.9975C18.3108 13.874 18.2821 13.741 18.2802 13.6064C18.2783 13.4717 18.3033 13.338 18.3536 13.213L18.5512 12.6999C19.4235 10.4318 19.4235 7.92077 18.5512 5.65269L18.3536 5.1409C18.3055 5.01637 18.2825 4.88358 18.2859 4.75015C18.2892 4.61671 18.3189 4.48525 18.373 4.36327C18.4272 4.24129 18.505 4.13119 18.6017 4.03928C18.6985 3.94736 18.8125 3.87543 18.9371 3.82759" fill="#595959"/>
<path d="M5.84597 3.47693L6.24455 3.51053L6.24459 3.5101L5.84597 3.47693ZM7.33935 2.63749L7.53571 2.289L7.52708 2.28414L7.51822 2.27971L7.33935 2.63749ZM8.24648 0.823228L8.0677 1.18105L8.0765 1.18545L8.0855 1.18941L8.24648 0.823228ZM3.82185 3.30904L3.42325 3.2756L3.42322 3.27587L3.82185 3.30904ZM3.67156 5.11518V5.51518H4.03966L4.07018 5.14835L3.67156 5.11518ZM2.3772 5.11518V4.71518V5.11518ZM1.36176 6.13063H0.961759H1.36176ZM2.3772 7.14607V7.54607V7.14607ZM3.50097 7.14607L3.89959 7.17925L3.93564 6.74607H3.50097V7.14607ZM2.97023 13.5231L2.5716 13.4899L2.5716 13.4899L2.97023 13.5231ZM1.47684 14.3625L1.65571 14.0047L1.64687 14.0003L1.63782 13.9963L1.47684 14.3625ZM0.569711 16.1768L0.373356 16.5253L0.382024 16.5301L0.390926 16.5346L0.569711 16.1768ZM4.99435 13.691L5.39295 13.7244L5.39297 13.7242L4.99435 13.691ZM5.53998 7.14607V6.74607H5.17194L5.14136 7.11284L5.53998 7.14607ZM7.11595 7.14607V6.74607V7.14607ZM7.11595 5.11518V5.51518V5.11518ZM5.70787 5.11518L5.30928 5.08158L5.27273 5.51518H5.70787V5.11518ZM13.9885 6.49619L14.2957 6.23989L14.2895 6.23281L13.9885 6.49619ZM12.4288 7.79596L12.1153 8.04465L12.1215 8.05203L12.4288 7.79596ZM13.5796 9.17696L13.8869 9.43304L14.1003 9.17696L13.8869 8.92089L13.5796 9.17696ZM12.4288 10.558L12.1214 10.3018L12.1154 10.3093L12.4288 10.558ZM13.9885 11.8577L14.2896 12.1212L14.2957 12.114L13.9885 11.8577ZM14.901 10.7638L15.2082 10.5075L14.901 10.1393L14.5939 10.5075L14.901 10.7638ZM15.8136 11.8577L15.5063 12.114L15.5125 12.1211L15.8136 11.8577ZM17.3733 10.558L17.6867 10.3093L17.6806 10.3019L17.3733 10.558ZM16.2225 9.17696L15.9152 8.92089L15.7018 9.17696L15.9152 9.43304L16.2225 9.17696ZM17.3733 7.79596L17.6807 8.05211L17.6867 8.04458L17.3733 7.79596ZM15.8136 6.49619L15.5124 6.23274L15.5064 6.23996L15.8136 6.49619ZM14.901 7.59016L14.5939 7.84638L14.901 8.21462L15.2082 7.84638L14.901 7.59016ZM10.8663 3.82895L11.0103 3.45577L11.0102 3.45573L10.8663 3.82895ZM11.4485 5.1409L11.0752 4.99729L11.0751 4.99764L11.4485 5.1409ZM11.2522 5.65269L11.6255 5.79628L11.6257 5.79595L11.2522 5.65269ZM11.2522 12.6999L11.6257 12.5566L11.6255 12.5563L11.2522 12.6999ZM11.4485 13.2117L11.0751 13.3549L11.0752 13.3554L11.4485 13.2117ZM9.55302 13.9414L9.17956 14.0847L9.17973 14.0852L9.55302 13.9414ZM9.3567 13.4297L9.73017 13.2864L9.73004 13.2861L9.3567 13.4297ZM9.3567 4.92428L9.73004 5.06787L9.73017 5.06754L9.3567 4.92428ZM9.55302 4.41249L9.17959 4.26914L9.17956 4.26923L9.55302 4.41249ZM20.2504 4.41114L20.624 4.26821L20.6237 4.26732L20.2504 4.41114ZM20.4467 4.92428L20.0731 5.06721L20.0734 5.06787L20.4467 4.92428ZM20.4467 13.4297L20.8199 13.5738L20.8201 13.5732L20.4467 13.4297ZM20.2491 13.9414L19.8759 13.7973L19.8735 13.8038L20.2491 13.9414ZM18.3536 13.213L18.7247 13.3624L18.7268 13.3568L18.3536 13.213ZM18.5512 12.6999L18.9245 12.8437L18.9246 12.8435L18.5512 12.6999ZM18.5512 5.65269L18.9246 5.5091L18.9244 5.50857L18.5512 5.65269ZM18.3536 5.1409L17.9803 5.28481L17.9804 5.28503L18.3536 5.1409ZM6.24459 3.5101C6.25319 3.40678 6.28698 3.30715 6.343 3.21991L5.66986 2.78762C5.54319 2.98486 5.46679 3.21014 5.44735 3.44375L6.24459 3.5101ZM6.343 3.21991C6.39902 3.13267 6.47557 3.06049 6.56595 3.00969L6.17395 2.31231C5.9696 2.42718 5.79653 2.59037 5.66986 2.78762L6.343 3.21991ZM6.56595 3.00969C6.65633 2.95889 6.75778 2.93101 6.86142 2.9285L6.84203 2.12874C6.60768 2.13442 6.3783 2.19745 6.17395 2.31231L6.56595 3.00969ZM6.86142 2.9285C6.96507 2.92599 7.06775 2.94891 7.16049 2.99527L7.51822 2.27971C7.30854 2.17489 7.07637 2.12305 6.84203 2.12874L6.86142 2.9285ZM7.143 2.98598C7.31007 3.08012 7.49454 3.13932 7.68519 3.16L7.77146 2.36467C7.68856 2.35568 7.60835 2.32993 7.53571 2.289L7.143 2.98598ZM7.68519 3.16C7.87584 3.18068 8.06871 3.16241 8.25208 3.10628L8.01795 2.34131C7.93821 2.36571 7.85435 2.37366 7.77146 2.36467L7.68519 3.16ZM8.25208 3.10628C8.43546 3.05015 8.60551 2.95735 8.75193 2.8335L8.23528 2.2227C8.17162 2.27655 8.09768 2.31691 8.01795 2.34131L8.25208 3.10628ZM8.75193 2.8335C8.89835 2.70965 9.01807 2.55734 9.10384 2.38582L8.38829 2.02805C8.351 2.10263 8.29895 2.16885 8.23528 2.2227L8.75193 2.8335ZM9.10384 2.38582C9.1896 2.21429 9.23961 2.02713 9.25084 1.83569L8.45221 1.78885C8.44733 1.87209 8.42558 1.95347 8.38829 2.02805L9.10384 2.38582ZM9.25084 1.83569C9.26207 1.64425 9.23428 1.45252 9.16915 1.27214L8.41669 1.54381C8.44501 1.62224 8.45709 1.7056 8.45221 1.78885L9.25084 1.83569ZM9.16915 1.27214C9.10403 1.09176 9.00293 0.926504 8.87199 0.78639L8.28749 1.3326C8.34442 1.39353 8.38838 1.46539 8.41669 1.54381L9.16915 1.27214ZM8.87199 0.78639C8.74106 0.646275 8.58302 0.534228 8.40746 0.45705L8.0855 1.18941C8.16184 1.22296 8.23056 1.27168 8.28749 1.3326L8.87199 0.78639ZM8.42527 0.465407C7.9189 0.212403 7.35827 0.087294 6.79239 0.101019L6.81178 0.900784C7.24703 0.890227 7.67823 0.986453 8.0677 1.18105L8.42527 0.465407ZM6.79239 0.101019C6.2265 0.114744 5.67259 0.266885 5.17909 0.54414L5.57093 1.24161C5.95051 1.02836 6.37654 0.91134 6.81178 0.900784L6.79239 0.101019ZM5.17909 0.54414C4.68559 0.821395 4.26752 1.21532 3.96143 1.69148L4.63439 2.12407C4.86981 1.75784 5.19136 1.45485 5.57093 1.24161L5.17909 0.54414ZM3.96143 1.69148C3.65535 2.16764 3.47057 2.71153 3.42325 3.2756L4.22045 3.34248C4.25684 2.90863 4.39896 2.4903 4.63439 2.12407L3.96143 1.69148ZM3.42322 3.27587L3.27294 5.08201L4.07018 5.14835L4.22047 3.34221L3.42322 3.27587ZM3.67156 4.71518H2.3772V5.51518H3.67156V4.71518ZM2.3772 4.71518C2.00181 4.71518 1.64178 4.86431 1.37633 5.12975L1.94202 5.69544C2.05744 5.58002 2.21398 5.51518 2.3772 5.51518V4.71518ZM1.37633 5.12975C1.11089 5.3952 0.961759 5.75523 0.961759 6.13063H1.76176C1.76176 5.9674 1.8266 5.81086 1.94202 5.69544L1.37633 5.12975ZM0.961759 6.13063C0.961759 6.50603 1.11089 6.86605 1.37633 7.1315L1.94202 6.56581C1.8266 6.45039 1.76176 6.29385 1.76176 6.13063H0.961759ZM1.37633 7.1315C1.64178 7.39695 2.00181 7.54607 2.3772 7.54607V6.74607C2.21398 6.74607 2.05744 6.68123 1.94202 6.56581L1.37633 7.1315ZM2.3772 7.54607H3.50097V6.74607H2.3772V7.54607ZM3.10234 7.1129L2.5716 13.4899L3.36885 13.5562L3.89959 7.17925L3.10234 7.1129ZM2.5716 13.4899C2.563 13.5932 2.52922 13.6929 2.47319 13.7801L3.14634 14.2124C3.27301 14.0151 3.34941 13.7899 3.36885 13.5562L2.5716 13.4899ZM2.47319 13.7801C2.41717 13.8673 2.34062 13.9395 2.25024 13.9903L2.64224 14.6877C2.84659 14.5728 3.01967 14.4096 3.14634 14.2124L2.47319 13.7801ZM2.25024 13.9903C2.15987 14.0411 2.05841 14.069 1.95477 14.0715L1.97417 14.8713C2.20851 14.8656 2.4379 14.8025 2.64224 14.6877L2.25024 13.9903ZM1.95477 14.0715C1.85112 14.074 1.74844 14.0511 1.65571 14.0047L1.29798 14.7203C1.50765 14.8251 1.73982 14.8769 1.97417 14.8713L1.95477 14.0715ZM1.63782 13.9963C1.30525 13.8501 0.929205 13.8374 0.58751 13.9608L0.859182 14.7132C1.00775 14.6596 1.17126 14.6651 1.31586 14.7287L1.63782 13.9963ZM0.58751 13.9608C0.245814 14.0841 -0.0353663 14.3342 -0.197832 14.6591L0.51771 15.0169C0.588351 14.8756 0.71061 14.7669 0.859182 14.7132L0.58751 13.9608ZM-0.197832 14.6591C-0.360298 14.984 -0.391609 15.359 -0.285286 15.7064L0.479684 15.4722C0.433454 15.3212 0.447069 15.1581 0.51771 15.0169L-0.197832 14.6591ZM-0.285286 15.7064C-0.178963 16.0537 0.056854 16.3469 0.373356 16.5253L0.766066 15.8283C0.628449 15.7507 0.525914 15.6233 0.479684 15.4722L-0.285286 15.7064ZM0.390926 16.5346C0.897289 16.7876 1.45792 16.9127 2.02381 16.899L2.00441 16.0992C1.56916 16.1098 1.13796 16.0135 0.748496 15.819L0.390926 16.5346ZM2.02381 16.899C2.58969 16.8853 3.1436 16.7331 3.6371 16.4559L3.24526 15.7584C2.86569 15.9716 2.43965 16.0887 2.00441 16.0992L2.02381 16.899ZM3.6371 16.4559C4.13061 16.1786 4.54868 15.7847 4.85476 15.3085L4.18181 14.8759C3.94639 15.2422 3.62483 15.5451 3.24526 15.7584L3.6371 16.4559ZM4.85476 15.3085C5.16085 14.8324 5.34563 14.2885 5.39295 13.7244L4.59575 13.6575C4.55935 14.0914 4.41723 14.5097 4.18181 14.8759L4.85476 15.3085ZM5.39297 13.7242L5.9386 7.1793L5.14136 7.11284L4.59573 13.6577L5.39297 13.7242ZM5.53998 7.54607H7.11595V6.74607H5.53998V7.54607ZM7.11595 7.54607C7.30183 7.54607 7.48589 7.50946 7.65762 7.43833L7.35147 6.69922C7.2768 6.73015 7.19677 6.74607 7.11595 6.74607V7.54607ZM7.65762 7.43833C7.82935 7.3672 7.98539 7.26293 8.11683 7.1315L7.55114 6.56581C7.49399 6.62296 7.42614 6.6683 7.35147 6.69922L7.65762 7.43833ZM8.11683 7.1315C8.24826 7.00006 8.35252 6.84402 8.42365 6.67229L7.68455 6.36615C7.65362 6.44082 7.60829 6.50866 7.55114 6.56581L8.11683 7.1315ZM8.42365 6.67229C8.49479 6.50056 8.5314 6.31651 8.5314 6.13063H7.7314C7.7314 6.21145 7.71548 6.29148 7.68455 6.36615L8.42365 6.67229ZM8.5314 6.13063C8.5314 5.94475 8.49479 5.76069 8.42365 5.58896L7.68455 5.89511C7.71548 5.96977 7.7314 6.04981 7.7314 6.13063H8.5314ZM8.42365 5.58896C8.35252 5.41723 8.24826 5.26119 8.11683 5.12975L7.55114 5.69544C7.60829 5.75259 7.65362 5.82044 7.68455 5.89511L8.42365 5.58896ZM8.11683 5.12975C7.98539 4.99832 7.82935 4.89406 7.65762 4.82292L7.35147 5.56203C7.42614 5.59296 7.49399 5.63829 7.55114 5.69544L8.11683 5.12975ZM7.65762 4.82292C7.48589 4.75179 7.30183 4.71518 7.11595 4.71518V5.51518C7.19677 5.51518 7.2768 5.5311 7.35147 5.56203L7.65762 4.82292ZM7.11595 4.71518H5.70787V5.51518H7.11595V4.71518ZM6.10645 5.14878L6.24455 3.51053L5.44738 3.44333L5.30928 5.08158L6.10645 5.14878ZM14.2895 6.23281C14.0462 5.9547 13.7038 5.78276 13.3355 5.75373L13.2726 6.55125C13.4328 6.56388 13.5816 6.63864 13.6874 6.75956L14.2895 6.23281ZM13.3355 5.75373C12.9671 5.72469 12.602 5.84086 12.3181 6.07742L12.8302 6.692C12.9537 6.58914 13.1124 6.53863 13.2726 6.55125L13.3355 5.75373ZM12.3181 6.07742C12.0342 6.31398 11.8541 6.65217 11.8162 7.01974L12.612 7.10172C12.6285 6.9419 12.7068 6.79485 12.8302 6.692L12.3181 6.07742ZM11.8162 7.01974C11.7784 7.38731 11.8857 7.75512 12.1154 8.04458L12.7421 7.54733C12.6422 7.42147 12.5956 7.26155 12.612 7.10172L11.8162 7.01974ZM12.1215 8.05203L13.2723 9.43304L13.8869 8.92089L12.7361 7.53988L12.1215 8.05203ZM13.2723 8.92089L12.1215 10.3019L12.7361 10.814L13.8869 9.43304L13.2723 8.92089ZM12.1154 10.3093C11.8857 10.5988 11.7784 10.9666 11.8162 11.3342L12.612 11.2522C12.5956 11.0924 12.6422 10.9325 12.7421 10.8066L12.1154 10.3093ZM11.8162 11.3342C11.8541 11.7018 12.0342 12.04 12.3181 12.2765L12.8302 11.6619C12.7068 11.5591 12.6285 11.412 12.612 11.2522L11.8162 11.3342ZM12.3181 12.2765C12.602 12.5131 12.9671 12.6292 13.3355 12.6002L13.2726 11.8027C13.1124 11.8153 12.9537 11.7648 12.8302 11.6619L12.3181 12.2765ZM13.3355 12.6002C13.7038 12.5712 14.0462 12.3992 14.2895 12.1211L13.6874 11.5944C13.5816 11.7153 13.4328 11.7901 13.2726 11.8027L13.3355 12.6002ZM14.2957 12.114L15.2082 11.02L14.5939 10.5075L13.6813 11.6015L14.2957 12.114ZM14.5939 11.02L15.5064 12.114L16.1208 11.6015L15.2082 10.5075L14.5939 11.02ZM15.5125 12.1211C15.7558 12.3992 16.0983 12.5712 16.4666 12.6002L16.5295 11.8027C16.3693 11.7901 16.2204 11.7153 16.1146 11.5944L15.5125 12.1211ZM16.4666 12.6002C16.835 12.6292 17.2001 12.5131 17.484 12.2765L16.9718 11.6619C16.8484 11.7648 16.6897 11.8153 16.5295 11.8027L16.4666 12.6002ZM17.484 12.2765C17.7679 12.0399 17.948 11.7018 17.9858 11.3342L17.1901 11.2522C17.1736 11.412 17.0953 11.5591 16.9718 11.6619L17.484 12.2765ZM17.9858 11.3342C18.0237 10.9666 17.9163 10.5988 17.6867 10.3093L17.06 10.8066C17.1598 10.9325 17.2065 11.0924 17.1901 11.2522L17.9858 11.3342ZM17.6806 10.3019L16.5298 8.92089L15.9152 9.43304L17.066 10.814L17.6806 10.3019ZM16.5298 9.43304L17.6806 8.05203L17.066 7.53988L15.9152 8.92089L16.5298 9.43304ZM17.6867 8.04458C17.9163 7.75512 18.0237 7.38731 17.9858 7.01974L17.1901 7.10172C17.2065 7.26155 17.1598 7.42147 17.06 7.54733L17.6867 8.04458ZM17.9858 7.01974C17.948 6.65217 17.7679 6.31398 17.484 6.07742L16.9718 6.692C17.0953 6.79485 17.1736 6.9419 17.1901 7.10172L17.9858 7.01974ZM17.484 6.07742C17.2001 5.84086 16.835 5.72469 16.4666 5.75373L16.5295 6.55125C16.6897 6.53863 16.8484 6.58914 16.9718 6.692L17.484 6.07742ZM16.4666 5.75373C16.0983 5.78276 15.7558 5.9547 15.5125 6.23281L16.1146 6.75956C16.2204 6.63864 16.3693 6.56388 16.5295 6.55125L16.4666 5.75373ZM15.5064 6.23996L14.5939 7.33394L15.2082 7.84638L16.1208 6.75241L15.5064 6.23996ZM15.2082 7.33394L14.2957 6.23996L13.6813 6.75241L14.5939 7.84638L15.2082 7.33394ZM10.7223 4.20213C10.8745 4.26085 10.9972 4.37758 11.0633 4.52668L11.7946 4.20219C11.6424 3.85929 11.3603 3.59082 11.0103 3.45577L10.7223 4.20213ZM11.0633 4.52668C11.1295 4.67578 11.1338 4.84505 11.0752 4.99729L11.8219 5.28452C11.9565 4.93439 11.9467 4.5451 11.7946 4.20219L11.0633 4.52668ZM11.0751 4.99764L10.8787 5.50943L11.6257 5.79595L11.822 5.28417L11.0751 4.99764ZM10.8789 5.5091C9.97101 7.86961 9.97101 10.483 10.8789 12.8435L11.6255 12.5563C10.7888 10.3806 10.7888 7.97194 11.6255 5.79628L10.8789 5.5091ZM10.8787 12.8431L11.0751 13.3549L11.822 13.0684L11.6257 12.5566L10.8787 12.8431ZM11.0752 13.3554C11.1339 13.5077 11.1296 13.6772 11.0634 13.8264L11.7945 14.151C11.9469 13.8079 11.9567 13.4183 11.8218 13.068L11.0752 13.3554ZM11.0634 13.8264C10.9971 13.9756 10.8743 14.0924 10.7219 14.151L11.0094 14.8976C11.3597 14.7627 11.6422 14.4942 11.7945 14.151L11.0634 13.8264ZM10.7219 14.151C10.5696 14.2097 10.4002 14.2054 10.251 14.1391L9.92629 14.8703C10.2694 15.0227 10.659 15.0325 11.0094 14.8976L10.7219 14.151ZM10.251 14.1391C10.1018 14.0729 9.98497 13.9501 9.92631 13.7977L9.17973 14.0852C9.31462 14.4355 9.58317 14.7179 9.92629 14.8703L10.251 14.1391ZM9.92649 13.7982L9.73017 13.2864L8.98324 13.5729L9.17956 14.0847L9.92649 13.7982ZM9.73004 13.2861C8.71278 10.6411 8.71278 7.71283 9.73004 5.06787L8.98337 4.78069C7.895 7.6105 7.895 10.7434 8.98337 13.5732L9.73004 13.2861ZM9.73017 5.06754L9.92649 4.55575L9.17956 4.26923L8.98324 4.78102L9.73017 5.06754ZM9.92645 4.55584C9.95545 4.48032 9.99904 4.41125 10.0548 4.35259L9.47466 3.80169C9.34654 3.9366 9.24627 4.09544 9.17959 4.26914L9.92645 4.55584ZM10.0548 4.35259C10.1105 4.29393 10.1772 4.24683 10.2511 4.21398L9.92628 3.4829C9.75625 3.55845 9.60279 3.66677 9.47466 3.80169L10.0548 4.35259ZM10.2511 4.21398C10.325 4.18113 10.4047 4.16318 10.4856 4.16115L10.4656 3.3614C10.2796 3.36607 10.0963 3.40735 9.92628 3.4829L10.2511 4.21398ZM10.4856 4.16115C10.5665 4.15913 10.647 4.17306 10.7224 4.20217L11.0102 3.45573C10.8366 3.3888 10.6515 3.35674 10.4656 3.3614L10.4856 4.16115ZM19.0812 4.2021C19.1566 4.17297 19.237 4.159 19.3179 4.16097L19.3374 3.36121C19.1515 3.35667 18.9665 3.38881 18.793 3.4558L19.0812 4.2021ZM19.3179 4.16097C19.3987 4.16294 19.4784 4.18082 19.5523 4.21359L19.8765 3.48223C19.7065 3.40687 19.5233 3.36574 19.3374 3.36121L19.3179 4.16097ZM19.5523 4.21359C19.6262 4.24636 19.6929 4.29337 19.7487 4.35195L20.3282 3.80043C20.2 3.66572 20.0465 3.5576 19.8765 3.48223L19.5523 4.21359ZM19.7487 4.35195C19.8044 4.41052 19.8481 4.4795 19.8772 4.55495L20.6237 4.26732C20.5568 4.09379 20.4564 3.93514 20.3282 3.80043L19.7487 4.35195ZM19.8768 4.55407L20.0731 5.06721L20.8203 4.78135L20.624 4.26821L19.8768 4.55407ZM20.0734 5.06787C21.0907 7.71283 21.0907 10.6411 20.0734 13.2861L20.8201 13.5732C21.9084 10.7434 21.9084 7.6105 20.8201 4.78069L20.0734 5.06787ZM20.0736 13.2855L19.8759 13.7973L20.6222 14.0856L20.8199 13.5738L20.0736 13.2855ZM19.8735 13.8038C19.8454 13.8805 19.8023 13.9508 19.7468 14.0106L20.3334 14.5547C20.461 14.417 20.5601 14.2553 20.6246 14.079L19.8735 13.8038ZM19.7468 14.0106C19.6913 14.0705 19.6244 14.1187 19.5501 14.1525L19.881 14.8809C20.0519 14.8032 20.2057 14.6923 20.3334 14.5547L19.7468 14.0106ZM19.5501 14.1525C19.4758 14.1862 19.3955 14.2049 19.3139 14.2073L19.3377 15.007C19.5253 15.0014 19.71 14.9585 19.881 14.8809L19.5501 14.1525ZM19.3139 14.2073C19.2323 14.2097 19.151 14.1959 19.0748 14.1666L18.7878 14.9134C18.9631 14.9807 19.15 15.0125 19.3377 15.007L19.3139 14.2073ZM19.0748 14.1666C18.9986 14.1373 18.929 14.0932 18.87 14.0367L18.3168 14.6147C18.4525 14.7445 18.6126 14.846 18.7878 14.9134L19.0748 14.1666ZM18.87 14.0367C18.811 13.9803 18.7639 13.9127 18.7313 13.8378L17.9978 14.1572C18.0728 14.3293 18.1812 14.4848 18.3168 14.6147L18.87 14.0367ZM18.7313 13.8378C18.6987 13.763 18.6813 13.6824 18.6802 13.6008L17.8803 13.612C17.8829 13.7997 17.9229 13.985 17.9978 14.1572L18.7313 13.8378ZM18.6802 13.6008C18.679 13.5191 18.6942 13.4381 18.7246 13.3624L17.9825 13.0637C17.9124 13.2379 17.8776 13.4242 17.8803 13.612L18.6802 13.6008ZM18.7268 13.3568L18.9245 12.8437L18.178 12.5561L17.9803 13.0692L18.7268 13.3568ZM18.9246 12.8435C19.8324 10.483 19.8324 7.86961 18.9246 5.5091L18.1779 5.79628C19.0146 7.97194 19.0146 10.3806 18.1779 12.5563L18.9246 12.8435ZM18.9244 5.50857L18.7267 4.99678L17.9804 5.28503L18.1781 5.79681L18.9244 5.50857ZM18.7268 4.997C18.6977 4.92152 18.6837 4.84104 18.6858 4.76017L17.886 4.74012C17.8813 4.92612 17.9134 5.11121 17.9803 5.28481L18.7268 4.997ZM18.6858 4.76017C18.6878 4.6793 18.7057 4.59962 18.7386 4.52569L18.0075 4.20085C17.932 4.37087 17.8907 4.55412 17.886 4.74012L18.6858 4.76017ZM18.7386 4.52569C18.7714 4.45176 18.8185 4.38503 18.8772 4.32932L18.3263 3.74923C18.1914 3.87736 18.0831 4.03082 18.0075 4.20085L18.7386 4.52569ZM18.8772 4.32932C18.9359 4.27362 19.0049 4.23002 19.0805 4.20102L18.7937 3.45416C18.6201 3.52084 18.4612 3.62111 18.3263 3.74923L18.8772 4.32932Z" fill="#EFEFEF" mask="url(#path-1-inside-1_1509_4875)"/>
</svg>
