<svg width="22" height="19" viewBox="0 0 22 19" fill="none" xmlns="http://www.w3.org/2000/svg">
<path d="M4.26407 0.5H12.8743C13.4416 0.5 13.9344 0.5 14.3205 0.537242C14.7016 0.572 15.1708 0.655172 15.5532 0.969242C16.046 1.37393 16.3241 1.97973 16.3278 2.61035C16.3303 3.09449 16.1143 3.51159 15.9057 3.8418C15.6972 4.17697 15.3955 4.57421 15.043 5.03849L15.0045 5.08814L14.9921 5.10428L11.8204 9.2865C11.5075 9.69863 11.4293 9.80788 11.3747 9.9196C11.3178 10.0366 11.2765 10.1606 11.2518 10.2883C11.227 10.4124 11.2233 10.5515 11.2233 11.0753V16.3425C11.2233 16.6007 11.2233 16.854 11.2059 17.06C11.1873 17.2636 11.1413 17.5901 10.9278 17.8831C10.6671 18.2393 10.2612 18.4702 9.81056 18.4975C9.43567 18.5211 9.13153 18.3697 8.95401 18.2704C8.77525 18.1711 8.57042 18.0283 8.36311 17.8855L7.13539 17.0377L7.0758 16.9967C6.8387 16.8341 6.57553 16.6541 6.37815 16.4046C6.20661 16.1893 6.07883 15.9426 6.00201 15.6784C5.91387 15.3755 5.91511 15.0577 5.91511 14.7622V11.0753C5.91511 10.5515 5.91015 10.4124 5.88656 10.2883C5.86147 10.1605 5.81974 10.0365 5.76242 9.9196C5.70904 9.80788 5.63084 9.69863 5.31801 9.2865L2.14504 5.10428L2.13262 5.08939L2.09538 5.03973C1.74283 4.57421 1.44117 4.17697 1.23138 3.8418C1.02407 3.51159 0.809311 3.09449 0.810552 2.61035C0.811207 2.2967 0.880955 1.98704 1.01484 1.7034C1.14872 1.41976 1.34345 1.1691 1.58517 0.969242C1.96752 0.655172 2.43676 0.572 2.81787 0.536C3.20393 0.5 3.69552 0.5 4.26407 0.5ZM4.7569 5.46552L6.80146 8.15932L6.84491 8.21767C7.09442 8.54539 7.29304 8.80732 7.43829 9.10525C7.56573 9.3676 7.6576 9.64277 7.71387 9.93077C7.77718 10.2548 7.77594 10.585 7.77594 11.0033V14.6877C7.77594 14.8839 7.77718 14.9944 7.78215 15.0775L7.7896 15.1545C7.79812 15.1875 7.81334 15.2183 7.83429 15.2451L7.88518 15.2873C7.94725 15.337 8.03415 15.3966 8.19304 15.5058L9.36118 16.3127V11.0021C9.36118 10.5837 9.36119 10.2535 9.4245 9.92953C9.48077 9.64236 9.57263 9.36718 9.70008 9.10401C9.84532 8.80608 10.0439 8.54539 10.2935 8.21642L10.3369 8.15932L12.3802 5.46552H4.7569ZM13.7942 3.60345C14.0362 3.28069 14.2088 3.04483 14.328 2.85366C14.4273 2.69724 14.4571 2.62028 14.4645 2.59669C14.4605 2.53482 14.4355 2.47616 14.3937 2.43035C14.3125 2.40874 14.2294 2.39543 14.1455 2.39062C13.8575 2.36331 13.4553 2.36207 12.8296 2.36207H4.30876C3.68311 2.36207 3.2809 2.36207 2.9929 2.39062C2.90901 2.39543 2.82582 2.40874 2.74462 2.43035C2.70284 2.47616 2.67788 2.53482 2.67387 2.59669C2.68131 2.62028 2.71111 2.69724 2.81042 2.85366C2.92959 3.04607 3.10214 3.28069 3.34421 3.60345H13.7942ZM15.7071 7.63794C15.7071 7.39102 15.8052 7.1542 15.9798 6.9796C16.1544 6.805 16.3912 6.70691 16.6382 6.70691H20.3623C20.6092 6.70691 20.846 6.805 21.0206 6.9796C21.1952 7.1542 21.2933 7.39102 21.2933 7.63794C21.2933 7.88487 21.1952 8.12168 21.0206 8.29628C20.846 8.47089 20.6092 8.56898 20.3623 8.56898H16.6382C16.3912 8.56898 16.1544 8.47089 15.9798 8.29628C15.8052 8.12168 15.7071 7.88487 15.7071 7.63794ZM13.8451 10.7414C13.8451 10.4945 13.9431 10.2577 14.1177 10.0831C14.2924 9.90845 14.5292 9.81036 14.7761 9.81036H20.3623C20.6092 9.81036 20.846 9.90845 21.0206 10.0831C21.1952 10.2577 21.2933 10.4945 21.2933 10.7414C21.2933 10.9883 21.1952 11.2251 21.0206 11.3997C20.846 11.5743 20.6092 11.6724 20.3623 11.6724H14.7761C14.5292 11.6724 14.2924 11.5743 14.1177 11.3997C13.9431 11.2251 13.8451 10.9883 13.8451 10.7414ZM13.2244 13.8448C13.2244 13.5979 13.3225 13.3611 13.4971 13.1865C13.6717 13.0119 13.9085 12.9138 14.1554 12.9138H20.3623C20.6092 12.9138 20.846 13.0119 21.0206 13.1865C21.1952 13.3611 21.2933 13.5979 21.2933 13.8448C21.2933 14.0918 21.1952 14.3286 21.0206 14.5032C20.846 14.6778 20.6092 14.7759 20.3623 14.7759H14.1554C13.9085 14.7759 13.6717 14.6778 13.4971 14.5032C13.3225 14.3286 13.2244 14.0918 13.2244 13.8448ZM13.2244 16.9483C13.2244 16.7014 13.3225 16.4646 13.4971 16.29C13.6717 16.1154 13.9085 16.0173 14.1554 16.0173H17.2589C17.5058 16.0173 17.7426 16.1154 17.9172 16.29C18.0918 16.4646 18.1899 16.7014 18.1899 16.9483C18.1899 17.1952 18.0918 17.432 17.9172 17.6066C17.7426 17.7812 17.5058 17.8793 17.2589 17.8793H14.1554C13.9085 17.8793 13.6717 17.7812 13.4971 17.6066C13.3225 17.432 13.2244 17.1952 13.2244 16.9483Z" fill="#292929"/>
</svg>
