<svg width="19" height="19" viewBox="0 0 19 19" fill="none" xmlns="http://www.w3.org/2000/svg">
<path d="M17.0527 17.5029L11.7194 12.1695M1.3114 5.94731C1.62323 4.90218 2.2043 3.95737 2.99636 3.20759C3.78842 2.45781 4.76364 1.9294 5.82429 1.6753C7.31295 1.31481 8.8822 1.51442 10.2332 2.23614C11.5842 2.95787 12.6225 4.15127 13.1505 5.58908M13.4972 2.39175V5.94731H9.94162M13.235 9.50286C12.9223 10.5463 12.3411 11.4895 11.5497 12.2379C10.7582 12.9863 9.78406 13.5139 8.72473 13.7678C7.2362 14.128 5.66717 13.9283 4.31637 13.2066C2.96557 12.4849 1.92736 11.2916 1.3994 9.85397M1.05273 13.0584V9.50286H4.60829" stroke="#292929" stroke-width="2" stroke-linecap="round" stroke-linejoin="round"/>
</svg>
