<svg width="18" height="19" viewBox="0 0 18 19" fill="none" xmlns="http://www.w3.org/2000/svg">
<path d="M17.2266 1.61328C17.2266 1.31491 17.108 1.02876 16.8971 0.817786C16.6861 0.606808 16.3999 0.488281 16.1016 0.488281C15.8032 0.488281 15.517 0.606808 15.3061 0.817786C15.0951 1.02876 14.9766 1.31491 14.9766 1.61328V6.25578L10.9671 2.24628C9.83774 1.14176 8.31839 0.527156 6.73874 0.535855C5.1591 0.544554 3.64661 1.17585 2.52952 2.29275C1.41243 3.40964 0.780861 4.92202 0.771883 6.50166C0.762903 8.0813 1.37724 9.60076 2.48156 10.7303L9.90656 18.1553C10.0096 18.2658 10.1338 18.3545 10.2718 18.416C10.4098 18.4774 10.5587 18.5105 10.7098 18.5132C10.8608 18.5158 11.0109 18.488 11.151 18.4315C11.291 18.3749 11.4183 18.2907 11.5251 18.1838C11.6319 18.077 11.7162 17.9498 11.7727 17.8097C11.8293 17.6696 11.8571 17.5196 11.8544 17.3685C11.8518 17.2174 11.8187 17.0685 11.7572 16.9305C11.6957 16.7925 11.6071 16.6683 11.4966 16.5653L4.07156 9.14028C3.7233 8.79202 3.44704 8.37856 3.25856 7.92353C3.07008 7.4685 2.97307 6.9808 2.97307 6.48828C2.97307 5.99576 3.07008 5.50806 3.25856 5.05303C3.44704 4.598 3.7233 4.18455 4.07156 3.83628C4.41983 3.48802 4.83328 3.21176 5.28831 3.02328C5.74334 2.8348 6.23104 2.73779 6.72356 2.73779C7.21608 2.73779 7.70378 2.8348 8.15881 3.02328C8.61384 3.21176 9.0273 3.48802 9.37556 3.83628L12.7776 7.23828H9.35156C9.05319 7.23828 8.76705 7.35681 8.55607 7.56779C8.34509 7.77876 8.22656 8.06491 8.22656 8.36328C8.22656 8.66165 8.34509 8.9478 8.55607 9.15878C8.76705 9.36975 9.05319 9.48828 9.35156 9.48828H15.9516C16.2897 9.48828 16.614 9.35395 16.8531 9.11484C17.0922 8.87573 17.2266 8.55143 17.2266 8.21328V1.61328Z" fill="#292929"/>
</svg>
