<svg width="19" height="21" viewBox="0 0 19 21" fill="none" xmlns="http://www.w3.org/2000/svg">
<path fill-rule="evenodd" clip-rule="evenodd" d="M0.101562 2.09375C0.101562 1.56332 0.312276 1.05461 0.687349 0.679536C1.06242 0.304464 1.57113 0.09375 2.10156 0.09375H16.1016C16.632 0.09375 17.1407 0.304464 17.5158 0.679536C17.8908 1.05461 18.1016 1.56332 18.1016 2.09375V16.0938C18.1016 16.6242 17.8908 17.1329 17.5158 17.508C17.1407 17.883 16.632 18.0938 16.1016 18.0938H2.10156C1.57113 18.0938 1.06242 17.883 0.687349 17.508C0.312276 17.1329 0.101563 16.6242 0.101562 16.0938V2.09375ZM8.10156 2.09375H2.10156V16.0938H8.10156V2.09375ZM10.1016 2.09375V8.09375H16.1016V2.09375H10.1016ZM10.1016 10.0938V16.0938H16.1016V10.0938H10.1016Z" fill="black"/>
</svg>
