<svg width="18" height="19" viewBox="0 0 18 19" fill="none" xmlns="http://www.w3.org/2000/svg">
<path d="M15.2266 2.625V0.90625C15.2266 0.815082 15.1903 0.727648 15.1259 0.663182C15.0614 0.598716 14.974 0.5625 14.8828 0.5625H3.19531C3.10414 0.5625 3.01671 0.598716 2.95224 0.663182C2.88778 0.727648 2.85156 0.815082 2.85156 0.90625V2.625" fill="#292929"/>
<path d="M15.5703 3.3125H2.50781C1.86964 3.3125 1.2576 3.56602 0.806337 4.01727C0.355078 4.46853 0.101562 5.08057 0.101562 5.71875V14.6562C0.101562 14.7474 0.137779 14.8349 0.202245 14.8993C0.26671 14.9638 0.354144 15 0.445312 15H2.85156V18.0938C2.85156 18.1849 2.88778 18.2724 2.95224 18.3368C3.01671 18.4013 3.10414 18.4375 3.19531 18.4375H14.8828C14.974 18.4375 15.0614 18.4013 15.1259 18.3368C15.1903 18.2724 15.2266 18.1849 15.2266 18.0938V15H17.6328C17.724 15 17.8114 14.9638 17.8759 14.8993C17.9403 14.8349 17.9766 14.7474 17.9766 14.6562V5.71875C17.9766 5.08057 17.723 4.46853 17.2718 4.01727C16.8205 3.56602 16.2085 3.3125 15.5703 3.3125ZM13.5078 16.5469C13.5078 16.5925 13.4897 16.6362 13.4575 16.6684C13.4252 16.7006 13.3815 16.7188 13.3359 16.7188H4.74219C4.6966 16.7188 4.65289 16.7006 4.62065 16.6684C4.58842 16.6362 4.57031 16.5925 4.57031 16.5469V10.0156C4.57031 9.97004 4.58842 9.92632 4.62065 9.89409C4.65289 9.86186 4.6966 9.84375 4.74219 9.84375H13.3359C13.3815 9.84375 13.4252 9.86186 13.4575 9.89409C13.4897 9.92632 13.5078 9.97004 13.5078 10.0156V16.5469ZM14.9688 7.43406C14.7584 7.45097 14.548 7.40295 14.3658 7.29647C14.1836 7.19 14.0385 7.03021 13.95 6.83865C13.8615 6.6471 13.8339 6.433 13.8709 6.22526C13.9079 6.01752 14.0077 5.82613 14.1569 5.67692C14.3061 5.52772 14.4975 5.42787 14.7053 5.39086C14.913 5.35385 15.1271 5.38146 15.3187 5.46996C15.5102 5.55847 15.67 5.7036 15.7765 5.88578C15.8829 6.06796 15.931 6.27842 15.9141 6.48875C15.8944 6.73292 15.7885 6.96212 15.6153 7.13533C15.4421 7.30854 15.2129 7.41444 14.9688 7.43406Z" fill="#292929"/>
</svg>
