<svg width="12" height="15" viewBox="0 0 12 15" fill="none" xmlns="http://www.w3.org/2000/svg">
<path d="M0.693359 1.52941C0.693359 0.961176 1.15454 0.5 1.72277 0.5H5.84042C6.5562 0.50055 7.25812 0.697403 7.8698 1.06914C8.48149 1.44087 8.9795 1.97325 9.30966 2.60834C9.63982 3.24343 9.78946 3.95691 9.74232 4.67114C9.69519 5.38537 9.45306 6.07299 9.0423 6.65918C9.88831 7.0588 10.573 7.73463 10.9836 8.57537C11.3942 9.41611 11.5062 10.3716 11.3012 11.2845C11.0962 12.1974 10.5864 13.0133 9.85578 13.5978C9.12514 14.1823 8.21724 14.5005 7.28159 14.5H1.72277C1.15454 14.5 0.693359 14.0388 0.693359 13.4706V1.52941ZM2.75218 8.32353V12.4412H7.28159C7.82763 12.4412 8.3513 12.2243 8.7374 11.8382C9.12351 11.4521 9.34042 10.9284 9.34042 10.3824C9.34042 9.83632 9.12351 9.31265 8.7374 8.92655C8.3513 8.54044 7.82763 8.32353 7.28159 8.32353H2.75218ZM2.75218 6.26471H5.84124C6.33267 6.2646 6.80393 6.06927 7.15135 5.7217C7.49876 5.37413 7.69388 4.90278 7.69377 4.41135C7.69366 3.91992 7.49834 3.44866 7.15077 3.10125C6.8032 2.75383 6.33185 2.55871 5.84042 2.55882H2.75218V6.26471Z" fill="#292929"/>
</svg>
