<svg width="13" height="15" viewBox="0 0 13 15" fill="none" xmlns="http://www.w3.org/2000/svg">
<path d="M4.85352 1.5C4.85352 0.946875 5.30039 0.5 5.85352 0.5H11.8535C12.4066 0.5 12.8535 0.946875 12.8535 1.5C12.8535 2.05313 12.4066 2.5 11.8535 2.5H10.0191L5.85352 12.5H7.85352C8.40664 12.5 8.85352 12.9469 8.85352 13.5C8.85352 14.0531 8.40664 14.5 7.85352 14.5H1.85352C1.30039 14.5 0.853516 14.0531 0.853516 13.5C0.853516 12.9469 1.30039 12.5 1.85352 12.5H3.68789L7.85352 2.5H5.85352C5.30039 2.5 4.85352 2.05313 4.85352 1.5Z" fill="#292929"/>
</svg>
