<svg width="11" height="17" viewBox="0 0 11 17" fill="none" xmlns="http://www.w3.org/2000/svg">
<path d="M2.2418 1.3H2.24188L2.24172 1.29716C2.22937 1.08022 2.13454 0.876212 1.97665 0.726928C1.81876 0.577644 1.60976 0.494384 1.39247 0.494203C1.17518 0.494022 0.966042 0.576934 0.807903 0.725954C0.649764 0.874975 0.554592 1.07882 0.541882 1.29574L0.541797 1.29574V1.29867V8.23267C0.541797 9.58969 1.08087 10.8911 2.04043 11.8507C2.99999 12.8103 4.30144 13.3493 5.65846 13.3493C7.01549 13.3493 8.31693 12.8103 9.27649 11.8507C10.2361 10.8911 10.7751 9.58969 10.7751 8.23267V1.3C10.7751 1.07469 10.6857 0.858595 10.5264 0.69921C10.3672 0.539824 10.1511 0.450188 9.92584 0.45H9.9258H9.92513C9.6997 0.45 9.48349 0.539553 9.32409 0.698959C9.16468 0.858365 9.07513 1.07457 9.07513 1.3V8.23267C9.07513 9.13882 8.71516 10.0079 8.07441 10.6486C7.43366 11.2894 6.56462 11.6493 5.65846 11.6493C4.75231 11.6493 3.88326 11.2894 3.24252 10.6486C2.60177 10.0079 2.2418 9.13882 2.2418 8.23267V1.3ZM1.3918 14.85V14.8499L1.38896 14.8501C1.17202 14.8624 0.968009 14.9573 0.818725 15.1151C0.669441 15.273 0.586181 15.482 0.586 15.6993C0.585819 15.9166 0.668731 16.1258 0.817751 16.2839C0.966772 16.442 1.17062 16.5372 1.38754 16.5499L1.38753 16.55H1.39046H9.92513V16.5501L9.92797 16.5499C10.1449 16.5376 10.3489 16.4427 10.4982 16.2848C10.6475 16.127 10.7307 15.918 10.7309 15.7007C10.7311 15.4834 10.6482 15.2742 10.4992 15.1161C10.3502 14.958 10.1463 14.8628 9.92939 14.8501L9.92939 14.85H9.92646H9.92513H1.3918Z" fill="#292929" stroke="#292929" stroke-width="0.1"/>
</svg>
