<svg width="19" height="19" viewBox="0 0 19 19" fill="none" xmlns="http://www.w3.org/2000/svg">
<path fill-rule="evenodd" clip-rule="evenodd" d="M6.03078 0.5C7.16615 0.5 8.10523 1.4931 8.26009 2.78513L15.8979 10.4238L8.89485 17.4269C8.64402 17.6778 8.34624 17.8768 8.01849 18.0125C7.69075 18.1483 7.33947 18.2182 6.98472 18.2182C6.62997 18.2182 6.27869 18.1483 5.95095 18.0125C5.62321 17.8768 5.32542 17.6778 5.07459 17.4269L1.25614 13.6075C1.00527 13.3567 0.806268 13.0589 0.670497 12.7312C0.534725 12.4034 0.464844 12.0522 0.464844 11.6974C0.464844 11.3427 0.534725 10.9914 0.670497 10.6636C0.806268 10.3359 1.00527 10.0381 1.25614 9.78728L3.78077 7.26175V3.16238C3.78077 1.69209 4.78828 0.5 6.03078 0.5ZM6.48187 3.16238V4.56065L5.5815 5.46102V3.16238C5.5815 2.86796 5.78318 2.63027 6.03168 2.63027C6.28109 2.63027 6.48187 2.86796 6.48187 3.16238ZM6.48187 8.48715V7.10689L2.52926 11.0604C2.36047 11.2292 2.26564 11.4582 2.26564 11.697C2.26564 11.9357 2.36047 12.1647 2.52926 12.3335L6.34951 16.1538C6.51836 16.3226 6.74733 16.4174 6.98607 16.4174C7.22482 16.4174 7.45379 16.3226 7.62263 16.1538L13.3526 10.4238L8.2835 5.35478V8.48805L8.2808 8.6033H6.47106C6.47717 8.56486 6.48078 8.52606 6.48187 8.48715Z" fill="#292929"/>
<path d="M13.8251 13.8886C13.4473 14.2664 13.1899 14.7477 13.0857 15.2716C12.9814 15.7956 13.0348 16.3388 13.2392 16.8324C13.4436 17.326 13.7899 17.7479 14.2341 18.0447C14.6783 18.3416 15.2005 18.5 15.7348 18.5C16.2691 18.5 16.7913 18.3416 17.2355 18.0447C17.6797 17.7479 18.026 17.326 18.2304 16.8324C18.4348 16.3388 18.4882 15.7956 18.3839 15.2716C18.2796 14.7477 18.0223 14.2664 17.6445 13.8886L15.7348 11.979L13.8251 13.8886Z" fill="#292929"/>
</svg>
