<svg width="18" height="19" viewBox="0 0 18 19" fill="none" xmlns="http://www.w3.org/2000/svg">
<path d="M17.7092 15.3984C17.7092 17.1117 16.2888 18.5014 14.5364 18.5014C12.7839 18.5014 11.3635 17.1117 11.3635 15.3984C11.3635 13.6851 14.5364 8.98294 14.5364 8.98294C14.5364 8.98294 17.7092 13.6851 17.7092 15.3984Z" fill="#292929"/>
<path fill-rule="evenodd" clip-rule="evenodd" d="M7.64399 4.24816L6.20564 7.90432H9.08127L7.64399 4.24816ZM11.61 8.55263L8.7365 1.24561C8.34518 0.251462 6.94173 0.251462 6.55148 1.24561L3.71074 8.47014C3.67486 8.53807 3.64649 8.6097 3.62613 8.68377L2.26922 12.1348H1.82714C1.54664 12.1348 1.27764 12.2462 1.0793 12.4445C0.880957 12.6429 0.769531 12.9119 0.769531 13.1924C0.769531 13.4729 0.880957 13.7419 1.0793 13.9402C1.27764 14.1385 1.54664 14.25 1.82714 14.25H4.73556C5.01606 14.25 5.28506 14.1385 5.4834 13.9402C5.68174 13.7419 5.79317 13.4729 5.79317 13.1924C5.79317 12.9119 5.68174 12.6429 5.4834 12.4445C5.28506 12.2462 5.01606 12.1348 4.73556 12.1348H4.54202L5.37436 10.0195H9.91361L10.3018 11.0084C10.3512 11.1396 10.4261 11.2597 10.5224 11.3616C10.6186 11.4636 10.7341 11.5454 10.8622 11.6023C10.9904 11.6592 11.1285 11.69 11.2687 11.6931C11.4088 11.6961 11.5482 11.6712 11.6786 11.6199C11.8091 11.5686 11.9281 11.4919 12.0286 11.3942C12.1291 11.2965 12.2092 11.1797 12.2643 11.0508C12.3193 10.9219 12.3481 10.7833 12.3491 10.6431C12.3501 10.5029 12.3232 10.3639 12.27 10.2342L11.6269 8.59705L11.61 8.55263Z" fill="#292929"/>
</svg>
