<svg width="19" height="18" viewBox="0 0 19 18" fill="none" xmlns="http://www.w3.org/2000/svg">
<path d="M5.04688 16C4.84909 16 4.65575 16.0586 4.49131 16.1685C4.32686 16.2784 4.19868 16.4346 4.123 16.6173C4.04731 16.8 4.0275 17.0011 4.06609 17.1951C4.10468 17.3891 4.19992 17.5673 4.33977 17.7071C4.47962 17.847 4.6578 17.9422 4.85179 17.9808C5.04577 18.0194 5.24683 17.9996 5.42956 17.9239C5.61229 17.8482 5.76846 17.72 5.87835 17.5556C5.98823 17.3911 6.04688 17.1978 6.04688 17C6.04688 16.7348 5.94152 16.4804 5.75398 16.2929C5.56645 16.1054 5.31209 16 5.04688 16ZM5.04688 8C4.84909 8 4.65575 8.05865 4.49131 8.16853C4.32686 8.27841 4.19868 8.43459 4.123 8.61732C4.04731 8.80004 4.0275 9.00111 4.06609 9.19509C4.10468 9.38907 4.19992 9.56725 4.33977 9.70711C4.47962 9.84696 4.6578 9.9422 4.85179 9.98079C5.04577 10.0194 5.24683 9.99957 5.42956 9.92388C5.61229 9.84819 5.76846 9.72002 5.87835 9.55557C5.98823 9.39112 6.04688 9.19778 6.04688 9C6.04688 8.73478 5.94152 8.48043 5.75398 8.29289C5.56645 8.10536 5.31209 8 5.04688 8ZM9.04688 16C8.84909 16 8.65575 16.0586 8.49131 16.1685C8.32686 16.2784 8.19868 16.4346 8.123 16.6173C8.04731 16.8 8.02751 17.0011 8.06609 17.1951C8.10468 17.3891 8.19992 17.5673 8.33977 17.7071C8.47962 17.847 8.6578 17.9422 8.85179 17.9808C9.04577 18.0194 9.24683 17.9996 9.42956 17.9239C9.61229 17.8482 9.76846 17.72 9.87835 17.5556C9.98823 17.3911 10.0469 17.1978 10.0469 17C10.0469 16.7348 9.94152 16.4804 9.75398 16.2929C9.56645 16.1054 9.31209 16 9.04688 16ZM1.04688 4C0.849094 4 0.655755 4.05865 0.491305 4.16853C0.326856 4.27841 0.198684 4.43459 0.122996 4.61732C0.0473083 4.80004 0.0275049 5.00111 0.0660902 5.19509C0.104675 5.38907 0.199916 5.56725 0.339769 5.70711C0.479621 5.84696 0.657804 5.9422 0.851785 5.98079C1.04577 6.01937 1.24683 5.99957 1.42956 5.92388C1.61229 5.84819 1.76846 5.72002 1.87835 5.55557C1.98823 5.39112 2.04688 5.19778 2.04688 5C2.04688 4.73478 1.94152 4.48043 1.75398 4.29289C1.56645 4.10536 1.31209 4 1.04688 4ZM1.04688 16C0.849094 16 0.655755 16.0586 0.491305 16.1685C0.326856 16.2784 0.198684 16.4346 0.122996 16.6173C0.0473083 16.8 0.0275049 17.0011 0.0660902 17.1951C0.104675 17.3891 0.199916 17.5673 0.339769 17.7071C0.479621 17.847 0.657804 17.9422 0.851785 17.9808C1.04577 18.0194 1.24683 17.9996 1.42956 17.9239C1.61229 17.8482 1.76846 17.72 1.87835 17.5556C1.98823 17.3911 2.04688 17.1978 2.04688 17C2.04688 16.7348 1.94152 16.4804 1.75398 16.2929C1.56645 16.1054 1.31209 16 1.04688 16ZM1.04688 2H17.0469C17.3121 2 17.5664 1.89464 17.754 1.70711C17.9415 1.51957 18.0469 1.26522 18.0469 1C18.0469 0.734784 17.9415 0.48043 17.754 0.292893C17.5664 0.105357 17.3121 0 17.0469 0H1.04688C0.781659 0 0.527305 0.105357 0.339769 0.292893C0.152232 0.48043 0.0468755 0.734784 0.0468755 1C0.0468755 1.26522 0.152232 1.51957 0.339769 1.70711C0.527305 1.89464 0.781659 2 1.04688 2ZM1.04688 12C0.849094 12 0.655755 12.0586 0.491305 12.1685C0.326856 12.2784 0.198684 12.4346 0.122996 12.6173C0.0473083 12.8 0.0275049 13.0011 0.0660902 13.1951C0.104675 13.3891 0.199916 13.5673 0.339769 13.7071C0.479621 13.847 0.657804 13.9422 0.851785 13.9808C1.04577 14.0194 1.24683 13.9996 1.42956 13.9239C1.61229 13.8482 1.76846 13.72 1.87835 13.5556C1.98823 13.3911 2.04688 13.1978 2.04688 13C2.04688 12.7348 1.94152 12.4804 1.75398 12.2929C1.56645 12.1054 1.31209 12 1.04688 12ZM1.04688 8C0.849094 8 0.655755 8.05865 0.491305 8.16853C0.326856 8.27841 0.198684 8.43459 0.122996 8.61732C0.0473083 8.80004 0.0275049 9.00111 0.0660902 9.19509C0.104675 9.38907 0.199916 9.56725 0.339769 9.70711C0.479621 9.84696 0.657804 9.9422 0.851785 9.98079C1.04577 10.0194 1.24683 9.99957 1.42956 9.92388C1.61229 9.84819 1.76846 9.72002 1.87835 9.55557C1.98823 9.39112 2.04688 9.19778 2.04688 9C2.04688 8.73478 1.94152 8.48043 1.75398 8.29289C1.56645 8.10536 1.31209 8 1.04688 8ZM9.04688 4C8.84909 4 8.65575 4.05865 8.49131 4.16853C8.32686 4.27841 8.19868 4.43459 8.123 4.61732C8.04731 4.80004 8.02751 5.00111 8.06609 5.19509C8.10468 5.38907 8.19992 5.56725 8.33977 5.70711C8.47962 5.84696 8.6578 5.9422 8.85179 5.98079C9.04577 6.01937 9.24683 5.99957 9.42956 5.92388C9.61229 5.84819 9.76846 5.72002 9.87835 5.55557C9.98823 5.39112 10.0469 5.19778 10.0469 5C10.0469 4.73478 9.94152 4.48043 9.75398 4.29289C9.56645 4.10536 9.31209 4 9.04688 4ZM17.0469 12C16.8491 12 16.6558 12.0586 16.4913 12.1685C16.3269 12.2784 16.1987 12.4346 16.123 12.6173C16.0473 12.8 16.0275 13.0011 16.0661 13.1951C16.1047 13.3891 16.1999 13.5673 16.3398 13.7071C16.4796 13.847 16.6578 13.9422 16.8518 13.9808C17.0458 14.0194 17.2468 13.9996 17.4296 13.9239C17.6123 13.8482 17.7685 13.72 17.8783 13.5556C17.9882 13.3911 18.0469 13.1978 18.0469 13C18.0469 12.7348 17.9415 12.4804 17.754 12.2929C17.5664 12.1054 17.3121 12 17.0469 12ZM17.0469 16C16.8491 16 16.6558 16.0586 16.4913 16.1685C16.3269 16.2784 16.1987 16.4346 16.123 16.6173C16.0473 16.8 16.0275 17.0011 16.0661 17.1951C16.1047 17.3891 16.1999 17.5673 16.3398 17.7071C16.4796 17.847 16.6578 17.9422 16.8518 17.9808C17.0458 18.0194 17.2468 17.9996 17.4296 17.9239C17.6123 17.8482 17.7685 17.72 17.8783 17.5556C17.9882 17.3911 18.0469 17.1978 18.0469 17C18.0469 16.7348 17.9415 16.4804 17.754 16.2929C17.5664 16.1054 17.3121 16 17.0469 16ZM9.04688 12C8.84909 12 8.65575 12.0586 8.49131 12.1685C8.32686 12.2784 8.19868 12.4346 8.123 12.6173C8.04731 12.8 8.02751 13.0011 8.06609 13.1951C8.10468 13.3891 8.19992 13.5673 8.33977 13.7071C8.47962 13.847 8.6578 13.9422 8.85179 13.9808C9.04577 14.0194 9.24683 13.9996 9.42956 13.9239C9.61229 13.8482 9.76846 13.72 9.87835 13.5556C9.98823 13.3911 10.0469 13.1978 10.0469 13C10.0469 12.7348 9.94152 12.4804 9.75398 12.2929C9.56645 12.1054 9.31209 12 9.04688 12ZM17.0469 4C16.8491 4 16.6558 4.05865 16.4913 4.16853C16.3269 4.27841 16.1987 4.43459 16.123 4.61732C16.0473 4.80004 16.0275 5.00111 16.0661 5.19509C16.1047 5.38907 16.1999 5.56725 16.3398 5.70711C16.4796 5.84696 16.6578 5.9422 16.8518 5.98079C17.0458 6.01937 17.2468 5.99957 17.4296 5.92388C17.6123 5.84819 17.7685 5.72002 17.8783 5.55557C17.9882 5.39112 18.0469 5.19778 18.0469 5C18.0469 4.73478 17.9415 4.48043 17.754 4.29289C17.5664 4.10536 17.3121 4 17.0469 4ZM17.0469 8C16.8491 8 16.6558 8.05865 16.4913 8.16853C16.3269 8.27841 16.1987 8.43459 16.123 8.61732C16.0473 8.80004 16.0275 9.00111 16.0661 9.19509C16.1047 9.38907 16.1999 9.56725 16.3398 9.70711C16.4796 9.84696 16.6578 9.9422 16.8518 9.98079C17.0458 10.0194 17.2468 9.99957 17.4296 9.92388C17.6123 9.84819 17.7685 9.72002 17.8783 9.55557C17.9882 9.39112 18.0469 9.19778 18.0469 9C18.0469 8.73478 17.9415 8.48043 17.754 8.29289C17.5664 8.10536 17.3121 8 17.0469 8ZM9.04688 8C8.84909 8 8.65575 8.05865 8.49131 8.16853C8.32686 8.27841 8.19868 8.43459 8.123 8.61732C8.04731 8.80004 8.02751 9.00111 8.06609 9.19509C8.10468 9.38907 8.19992 9.56725 8.33977 9.70711C8.47962 9.84696 8.6578 9.9422 8.85179 9.98079C9.04577 10.0194 9.24683 9.99957 9.42956 9.92388C9.61229 9.84819 9.76846 9.72002 9.87835 9.55557C9.98823 9.39112 10.0469 9.19778 10.0469 9C10.0469 8.73478 9.94152 8.48043 9.75398 8.29289C9.56645 8.10536 9.31209 8 9.04688 8ZM13.0469 8C12.8491 8 12.6558 8.05865 12.4913 8.16853C12.3269 8.27841 12.1987 8.43459 12.123 8.61732C12.0473 8.80004 12.0275 9.00111 12.0661 9.19509C12.1047 9.38907 12.1999 9.56725 12.3398 9.70711C12.4796 9.84696 12.6578 9.9422 12.8518 9.98079C13.0458 10.0194 13.2468 9.99957 13.4296 9.92388C13.6123 9.84819 13.7685 9.72002 13.8783 9.55557C13.9882 9.39112 14.0469 9.19778 14.0469 9C14.0469 8.73478 13.9415 8.48043 13.754 8.29289C13.5664 8.10536 13.3121 8 13.0469 8ZM13.0469 16C12.8491 16 12.6558 16.0586 12.4913 16.1685C12.3269 16.2784 12.1987 16.4346 12.123 16.6173C12.0473 16.8 12.0275 17.0011 12.0661 17.1951C12.1047 17.3891 12.1999 17.5673 12.3398 17.7071C12.4796 17.847 12.6578 17.9422 12.8518 17.9808C13.0458 18.0194 13.2468 17.9996 13.4296 17.9239C13.6123 17.8482 13.7685 17.72 13.8783 17.5556C13.9882 17.3911 14.0469 17.1978 14.0469 17C14.0469 16.7348 13.9415 16.4804 13.754 16.2929C13.5664 16.1054 13.3121 16 13.0469 16Z" fill="#292929"/>
</svg>
