<svg width="19" height="18" viewBox="0 0 19 18" fill="none" xmlns="http://www.w3.org/2000/svg">
<path d="M1.0957 5V3C1.0957 2.46957 1.30642 1.96086 1.68149 1.58579C2.05656 1.21071 2.56527 1 3.0957 1H5.0957M1.0957 13V15C1.0957 15.5304 1.30642 16.0391 1.68149 16.4142C2.05656 16.7893 2.56527 17 3.0957 17H5.0957M13.0957 1H15.0957C15.6261 1 16.1348 1.21071 16.5099 1.58579C16.885 1.96086 17.0957 2.46957 17.0957 3V5M13.0957 17H15.0957C15.6261 17 16.1348 16.7893 16.5099 16.4142C16.885 16.0391 17.0957 15.5304 17.0957 15V13M5.0957 9H13.0957M5.0957 6H11.0957M5.0957 12H9.0957" stroke="#292929" stroke-width="2" stroke-linecap="round" stroke-linejoin="round"/>
</svg>
