<svg width="24" height="25" viewBox="0 0 24 25" fill="none" xmlns="http://www.w3.org/2000/svg">
<path d="M6 5C5.60218 5 5.22064 5.15804 4.93934 5.43934C4.65804 5.72064 4.5 6.10218 4.5 6.5V18.5C4.5 18.8978 4.65804 19.2794 4.93934 19.5607C5.22064 19.842 5.60218 20 6 20V14.75C6 14.1533 6.23705 13.581 6.65901 13.159C7.08097 12.7371 7.65326 12.5 8.25 12.5H15.75C16.3467 12.5 16.919 12.7371 17.341 13.159C17.7629 13.581 18 14.1533 18 14.75V20C18.3978 20 18.7794 19.842 19.0607 19.5607C19.342 19.2794 19.5 18.8978 19.5 18.5V8.9315C19.4999 8.53371 19.3418 8.15224 19.0605 7.871L16.629 5.4395C16.3478 5.15818 15.9663 5.00008 15.5685 5H15V7.25C15 7.84674 14.7629 8.41903 14.341 8.84099C13.919 9.26295 13.3467 9.5 12.75 9.5H9.75C9.15326 9.5 8.58097 9.26295 8.15901 8.84099C7.73705 8.41903 7.5 7.84674 7.5 7.25V5H6ZM9 5V7.25C9 7.44891 9.07902 7.63968 9.21967 7.78033C9.36032 7.92098 9.55109 8 9.75 8H12.75C12.9489 8 13.1397 7.92098 13.2803 7.78033C13.421 7.63968 13.5 7.44891 13.5 7.25V5H9ZM16.5 20V14.75C16.5 14.5511 16.421 14.3603 16.2803 14.2197C16.1397 14.079 15.9489 14 15.75 14H8.25C8.05109 14 7.86032 14.079 7.71967 14.2197C7.57902 14.3603 7.5 14.5511 7.5 14.75V20H16.5ZM3 6.5C3 5.70435 3.31607 4.94129 3.87868 4.37868C4.44129 3.81607 5.20435 3.5 6 3.5H15.5685C16.3641 3.50017 17.127 3.81635 17.6895 4.379L20.121 6.8105C20.6836 7.37298 20.9998 8.13592 21 8.9315V18.5C21 19.2956 20.6839 20.0587 20.1213 20.6213C19.5587 21.1839 18.7956 21.5 18 21.5H6C5.20435 21.5 4.44129 21.1839 3.87868 20.6213C3.31607 20.0587 3 19.2956 3 18.5V6.5Z" fill="#989898"/>
</svg>
