<svg width="32" height="33" viewBox="0 0 32 33" fill="none" xmlns="http://www.w3.org/2000/svg">
<path fill-rule="evenodd" clip-rule="evenodd" d="M16 7.03906C20.9707 7.03906 25 11.0684 25 16.0391C25.0031 18.1161 24.2848 20.1298 22.9678 21.736L22.9858 21.7558L22.867 21.8566C22.0229 22.8549 20.9711 23.6568 19.7851 24.2065C18.599 24.7561 17.3072 25.0403 16 25.039C13.345 25.039 10.96 23.8897 9.31301 22.0627L9.13301 21.8557L9.01421 21.7567L9.03221 21.7351C7.71542 20.1292 6.99712 18.1158 7.00001 16.0391C7.00001 11.0684 11.0293 7.03906 16 7.03906ZM16 20.539C14.326 20.539 12.8131 21.0718 11.6863 21.8044C12.9306 22.7377 14.4446 23.2412 16 23.239C17.5554 23.2412 19.0694 22.7377 20.3137 21.8044C19.0261 20.9795 17.5292 20.5404 16 20.539ZM16 8.83906C14.6451 8.83902 13.3176 9.2213 12.1703 9.94196C11.0229 10.6626 10.1021 11.6924 9.51385 12.913C8.92557 14.1335 8.69363 15.4953 8.84469 16.8418C8.99575 18.1883 9.52369 19.4648 10.3678 20.5246C11.8267 19.4779 13.8175 18.7391 16 18.7391C18.1825 18.7391 20.1733 19.4779 21.6322 20.5246C22.4763 19.4648 23.0042 18.1883 23.1553 16.8418C23.3064 15.4953 23.0744 14.1335 22.4861 12.913C21.8979 11.6924 20.9771 10.6626 19.8297 9.94196C18.6824 9.2213 17.3549 8.83902 16 8.83906ZM16 10.6391C16.9548 10.6391 17.8705 11.0183 18.5456 11.6935C19.2207 12.3686 19.6 13.2843 19.6 14.2391C19.6 15.1938 19.2207 16.1095 18.5456 16.7846C17.8705 17.4598 16.9548 17.8391 16 17.8391C15.0452 17.8391 14.1295 17.4598 13.4544 16.7846C12.7793 16.1095 12.4 15.1938 12.4 14.2391C12.4 13.2843 12.7793 12.3686 13.4544 11.6935C14.1295 11.0183 15.0452 10.6391 16 10.6391ZM16 12.4391C15.5226 12.4391 15.0648 12.6287 14.7272 12.9663C14.3896 13.3038 14.2 13.7617 14.2 14.2391C14.2 14.7164 14.3896 15.1743 14.7272 15.5118C15.0648 15.8494 15.5226 16.0391 16 16.0391C16.4774 16.0391 16.9352 15.8494 17.2728 15.5118C17.6104 15.1743 17.8 14.7164 17.8 14.2391C17.8 13.7617 17.6104 13.3038 17.2728 12.9663C16.9352 12.6287 16.4774 12.4391 16 12.4391Z" fill="black"/>
</svg>
