<svg width="16" height="16" viewBox="0 0 16 16" fill="none" xmlns="http://www.w3.org/2000/svg">
<g clip-path="url(#clip0_1509_5633)">
<path d="M15.5043 13.6153L11.7143 10.3923C11.3223 10.0393 10.9033 9.87832 10.5653 9.89332C11.5712 8.71384 12.0815 7.19085 11.9894 5.64346C11.8973 4.09606 11.2099 2.64437 10.0712 1.59256C8.93249 0.540752 7.43092 -0.0295414 5.88109 0.00117975C4.33126 0.0319009 2.85347 0.661252 1.75736 1.75736C0.661252 2.85347 0.0319009 4.33126 0.00117975 5.88109C-0.0295414 7.43092 0.540752 8.93249 1.59256 10.0712C2.64437 11.2099 4.09606 11.8973 5.64346 11.9894C7.19085 12.0815 8.71384 11.5712 9.89332 10.5653C9.87732 10.9033 10.0393 11.3223 10.3923 11.7143L13.6153 15.5043C14.1673 16.1173 15.0683 16.1693 15.6183 15.6193C16.1683 15.0693 16.1163 14.1673 15.5033 13.6163L15.5043 13.6153ZM6.00032 9.99932C4.93945 9.99932 3.92203 9.57789 3.17189 8.82774C2.42174 8.0776 2.00032 7.06018 2.00032 5.99932C2.00032 4.93845 2.42174 3.92103 3.17189 3.17089C3.92203 2.42074 4.93945 1.99932 6.00032 1.99932C7.06118 1.99932 8.0786 2.42074 8.82874 3.17089C9.57889 3.92103 10.0003 4.93845 10.0003 5.99932C10.0003 7.06018 9.57889 8.0776 8.82874 8.82774C8.0786 9.57789 7.06118 9.99932 6.00032 9.99932ZM7.00032 2.99932H5.00032V4.99932H3.00032V6.99932H5.00032V8.99932H7.00032V6.99932H9.00032V4.99932H7.00032V2.99932Z" fill="white"/>
</g>
<defs>
<clipPath id="clip0_1509_5633">
<rect width="16" height="16" fill="white"/>
</clipPath>
</defs>
</svg>
