<svg width="20" height="20" viewBox="0 0 20 20" fill="none" xmlns="http://www.w3.org/2000/svg">
<g id="octicon:file-directory-open-fill-24">
<path id="Vector" d="M1.66663 3.95833C1.66663 3.15333 2.31996 2.5 3.12496 2.5H7.26746C7.75079 2.5 8.20079 2.73833 8.47329 3.1375L9.64329 4.85667C9.66236 4.88488 9.68806 4.90799 9.71813 4.92397C9.74821 4.93995 9.78174 4.94832 9.81579 4.94833H15.0025C15.8075 4.94833 16.4608 5.60083 16.4608 6.40667V6.50417H4.50663C4.32352 6.51046 4.15001 6.58762 4.02269 6.71938C3.89538 6.85114 3.82422 7.0272 3.82422 7.21042C3.82422 7.39364 3.89538 7.56969 4.02269 7.70145C4.15001 7.83321 4.32352 7.91038 4.50663 7.91667H17.41C17.5266 7.91664 17.6419 7.94109 17.7485 7.98844C17.8551 8.03579 17.9505 8.10498 18.0287 8.19154C18.1068 8.27809 18.1659 8.38009 18.2022 8.49093C18.2384 8.60177 18.251 8.71899 18.2391 8.835L17.5 16.0417C17.4116 16.9167 16.8466 17.5 16.0416 17.5H3.12496C2.73819 17.5 2.36725 17.3464 2.09376 17.0729C1.82027 16.7994 1.66663 16.4284 1.66663 16.0417V3.95833Z" fill="white"/>
</g>
</svg>
