<svg width="20" height="20" viewBox="0 0 20 20" fill="none" xmlns="http://www.w3.org/2000/svg">
<g id="ri:ai-generate-2" clip-path="url(#clip0_1374_4265)">
<path id="Vector" d="M17.0558 7.245L17.2608 6.77333C17.6212 5.93894 18.2813 5.26993 19.1108 4.89833L19.7433 4.61583C19.82 4.58053 19.885 4.52397 19.9306 4.45286C19.9762 4.38174 20.0004 4.29905 20.0004 4.21458C20.0004 4.13012 19.9762 4.04743 19.9306 3.97631C19.885 3.90519 19.82 3.84863 19.7433 3.81333L19.1458 3.5475C18.2955 3.16532 17.6241 2.47157 17.27 1.60917L17.0591 1.1C17.0282 1.02113 16.9742 0.953414 16.9041 0.905687C16.8341 0.857959 16.7514 0.832432 16.6666 0.832432C16.5819 0.832432 16.4991 0.857959 16.4291 0.905687C16.3591 0.953414 16.3051 1.02113 16.2741 1.1L16.0633 1.60833C15.7095 2.4709 15.0385 3.16494 14.1883 3.5475L13.59 3.81417C13.5135 3.84957 13.4487 3.90612 13.4033 3.97714C13.3579 4.04817 13.3338 4.13071 13.3338 4.215C13.3338 4.29929 13.3579 4.38183 13.4033 4.45285C13.4487 4.52388 13.5135 4.58043 13.59 4.61583L14.2233 4.8975C15.0526 5.26947 15.7124 5.93877 16.0725 6.77333L16.2775 7.245C16.4275 7.59 16.905 7.59 17.0558 7.245ZM4.83329 13.3333H6.62829L7.12829 12.0833H9.53829L10.0383 13.3333H11.8333L9.16663 6.66667H7.49996L4.83329 13.3333ZM8.33329 9.07083L8.87163 10.4167H7.79496L8.33329 9.07083ZM12.5 13.3333V6.66667H14.1666V13.3333H12.5ZM2.49996 2.5C2.27895 2.5 2.06698 2.5878 1.9107 2.74408C1.75442 2.90036 1.66663 3.11232 1.66663 3.33333V16.6667C1.66663 16.8877 1.75442 17.0996 1.9107 17.2559C2.06698 17.4122 2.27895 17.5 2.49996 17.5H17.5C17.721 17.5 17.9329 17.4122 18.0892 17.2559C18.2455 17.0996 18.3333 16.8877 18.3333 16.6667V9.16667H16.6666V15.8333H3.33329V4.16667H11.6666V2.5H2.49996Z" fill="white"/>
</g>
<defs>
<clipPath id="clip0_1374_4265">
<rect width="20" height="20" fill="white"/>
</clipPath>
</defs>
</svg>
