<svg width="14" height="16" viewBox="0 0 14 16" fill="none" xmlns="http://www.w3.org/2000/svg">
<path d="M8.63867 1.06641V3.76341C8.63867 4.12866 8.78417 4.47966 9.04367 4.73841C9.30383 4.99743 9.65605 5.1428 10.0232 5.14266H13.1169" stroke="#5F5E5E" stroke-width="1.5" stroke-linecap="round" stroke-linejoin="round"/>
<path d="M13.1875 5.42675V11.8528C13.1726 12.2731 13.0747 12.6863 12.8994 13.0686C12.724 13.4509 12.4748 13.7947 12.166 14.0803C11.8569 14.3671 11.4944 14.5903 11.0991 14.737C10.7037 14.8837 10.2834 14.9511 9.862 14.9353H4.1695C3.74555 14.9546 3.32195 14.8901 2.92298 14.7455C2.52401 14.6008 2.15751 14.3788 1.8445 14.0923C1.5327 13.8059 1.28091 13.4605 1.10374 13.0761C0.926582 12.6916 0.827583 12.2758 0.8125 11.8528V4.14725C0.827391 3.72693 0.925317 3.31372 1.10063 2.93142C1.27595 2.54911 1.5252 2.20529 1.834 1.91975C2.14306 1.6329 2.50561 1.40974 2.90094 1.26304C3.29627 1.11633 3.71663 1.04896 4.138 1.06475H8.4235C9.07771 1.06244 9.7092 1.3045 10.1943 1.7435L12.4142 3.785C12.6511 3.98906 12.8424 4.24071 12.9756 4.52356C13.1089 4.80642 13.1811 5.11416 13.1875 5.42675Z" stroke="#5F5E5E" stroke-width="1.5" stroke-linecap="round" stroke-linejoin="round"/>
<path d="M6.67812 6.82031V12.1573M4.01562 9.49481H9.35337" stroke="#5F5E5E" stroke-width="1.5" stroke-miterlimit="10" stroke-linecap="round"/>
</svg>
