<svg width="20" height="20" viewBox="0 0 20 20" fill="none" xmlns="http://www.w3.org/2000/svg">
<rect width="20" height="20" fill="#393939"/>
<g id="Homepage" clip-path="url(#clip0_17_23)">
<rect width="1440" height="900" transform="translate(-1106 -100)" fill="#EBEBEB"/>
<g id="Hero Section" clip-path="url(#clip1_17_23)">
<rect width="1440" height="132" transform="translate(-1106 -64)" fill="#166534"/>
<g id="Frame" opacity="0.25">
<path id="Rectangle 76" d="M-1103 41.6736C-1103 41.6736 -927.566 -23.9781 -811 -50.8264C-683.713 -80.144 -533.536 -84.632 -384.5 -76.2393C-235.932 -67.8729 -88.4973 -46.7068 34 -24.5776C211.755 7.53405 337 41.6736 337 41.6736V141.674H-1103V41.6736Z" fill="url(#paint0_linear_17_23)"/>
</g>
<g id="Rectangle 75" filter="url(#filter0_b_17_23)">
<rect x="-1106" y="-64" width="1440" height="132" fill="black" fill-opacity="0.02"/>
</g>
<g id="Frame 130">
<g id="Group 127">
<g id="Frame 39972">
<rect x="-65.5" y="-9.5" width="95" height="39" stroke="white"/>
<g id="lets-icons:sign-in">
<path id="Vector" fill-rule="evenodd" clip-rule="evenodd" d="M10 18.3333C14.6025 18.3333 18.3334 14.6025 18.3334 9.99999C18.3334 5.39749 14.6025 1.66666 10 1.66666C5.67919 1.66666 2.12585 4.95582 1.70835 9.16666H9.65502L6.91085 6.42249L8.08919 5.24416L12.2559 9.41082L12.845 9.99999L12.2559 10.5892L8.08919 14.7558L6.91085 13.5775L9.65502 10.8333H1.70752C2.12585 15.0442 5.67919 18.3333 10 18.3333Z" fill="#E6E6E6"/>
</g>
</g>
</g>
</g>
</g>
</g>
<defs>
<filter id="filter0_b_17_23" x="-1167.7" y="-125.7" width="1563.4" height="255.4" filterUnits="userSpaceOnUse" color-interpolation-filters="sRGB">
<feFlood flood-opacity="0" result="BackgroundImageFix"/>
<feGaussianBlur in="BackgroundImageFix" stdDeviation="30.85"/>
<feComposite in2="SourceAlpha" operator="in" result="effect1_backgroundBlur_17_23"/>
<feBlend mode="normal" in="SourceGraphic" in2="effect1_backgroundBlur_17_23" result="shape"/>
</filter>
<linearGradient id="paint0_linear_17_23" x1="-383" y1="141.674" x2="-383" y2="41.6739" gradientUnits="userSpaceOnUse">
<stop stop-color="#166534"/>
<stop offset="1" stop-color="#8DFBB7"/>
</linearGradient>
<clipPath id="clip0_17_23">
<rect width="1440" height="900" fill="white" transform="translate(-1106 -100)"/>
</clipPath>
<clipPath id="clip1_17_23">
<rect width="1440" height="132" fill="white" transform="translate(-1106 -64)"/>
</clipPath>
</defs>
</svg>
