<svg width="18" height="16" viewBox="0 0 18 16" fill="none" xmlns="http://www.w3.org/2000/svg">
<g id="teenyicons:spreadsheet-solid" clip-path="url(#clip0_1374_4227)">
<path id="Vector" d="M12.1664 8.28615V10.3644H9.89673V8.28615H12.1664ZM12.1664 5.1787V7.24964H9.89673V5.1787H12.1664ZM8.76188 5.1787H6.49219V7.24964H8.76188V5.1787ZM8.76188 8.28615H6.49219V10.3644H8.76188V8.28615Z" fill="#D9D9D9"/>
<path id="Vector_2" fill-rule="evenodd" clip-rule="evenodd" d="M1.95361 1.55414C1.95361 1.14179 2.13296 0.746329 2.4522 0.454754C2.77144 0.163179 3.20442 -0.00062561 3.65589 -0.00062561L12.9696 -0.00062561L16.7066 3.4126V13.9922C16.7066 14.4046 16.5273 14.8001 16.2081 15.0916C15.8888 15.3832 15.4558 15.547 15.0044 15.547H3.65589C3.20442 15.547 2.77144 15.3832 2.4522 15.0916C2.13296 14.8001 1.95361 14.4046 1.95361 13.9922V1.55414ZM13.3021 4.1423H5.35816V11.401H13.3021V4.1423Z" fill="#D9D9D9"/>
</g>
<defs>
<clipPath id="clip0_1374_4227">
<rect width="17.0227" height="15.5476" fill="white" transform="translate(0.818359)"/>
</clipPath>
</defs>
</svg>
