<svg width="32" height="33" viewBox="0 0 32 33" fill="none" xmlns="http://www.w3.org/2000/svg">
<path fill-rule="evenodd" clip-rule="evenodd" d="M15.1579 8.03906C17.2508 8.03906 18.9474 9.73564 18.9474 11.8285C18.9474 13.8616 17.3463 15.5208 15.3363 15.6139L15.1579 15.618H12.6316C11.4689 15.618 10.5263 16.5606 10.5263 17.7233C10.5263 18.8395 11.395 19.7528 12.4932 19.8241L12.6316 19.8286L15.6851 19.8285C16.0546 18.3929 17.3467 17.3277 18.8917 17.3027L18.9474 17.3022H21.4737V18.5654H24V19.8286H21.4737V21.5127H24V22.7759H21.4737V24.0391H18.9474C17.3778 24.0391 16.059 22.9656 15.6851 21.5128H12.6316C10.5387 21.5128 8.84209 19.8162 8.84209 17.7233C8.84209 15.6902 10.4431 14.0311 12.4532 13.9379L12.6316 13.9338H15.1579C16.3206 13.9338 17.2632 12.9912 17.2632 11.8285C17.2632 10.7123 16.3945 9.79904 15.2963 9.72775L15.1579 9.72329H8V8.03906H15.1579Z" fill="black"/>
</svg>
