<svg width="32" height="33" viewBox="0 0 32 33" fill="none" xmlns="http://www.w3.org/2000/svg">
<path d="M13.9175 19.8741C12.2636 19.8741 10.8641 19.3011 9.71881 18.1552C8.57354 17.0094 8.00061 15.6098 8 13.9566C7.99939 12.3033 8.57233 10.9037 9.71881 9.75787C10.8653 8.612 12.2648 8.03906 13.9175 8.03906C15.5701 8.03906 16.97 8.612 18.1171 9.75787C19.2642 10.9037 19.8368 12.3033 19.835 13.9566C19.835 14.6242 19.7288 15.2539 19.5164 15.8456C19.3039 16.4374 19.0156 16.9608 18.6515 17.416L23.7496 22.5142C23.9165 22.6811 24 22.8935 24 23.1514C24 23.4094 23.9165 23.6218 23.7496 23.7887C23.5827 23.9556 23.3703 24.0391 23.1124 24.0391C22.8544 24.0391 22.642 23.9556 22.4751 23.7887L17.377 18.6906C16.9218 19.0547 16.3983 19.343 15.8065 19.5554C15.2148 19.7678 14.5851 19.8741 13.9175 19.8741ZM13.9175 18.0533C15.0555 18.0533 16.0229 17.6551 16.8198 16.8589C17.6167 16.0626 18.0148 15.0951 18.0142 13.9566C18.0136 12.818 17.6155 11.8508 16.8198 11.0552C16.0241 10.2595 15.0567 9.86104 13.9175 9.85983C12.7783 9.85862 11.8112 10.2571 11.0161 11.0552C10.221 11.8533 9.82259 12.8204 9.82077 13.9566C9.81895 15.0927 10.2174 16.0602 11.0161 16.8589C11.8148 17.6576 12.7819 18.0557 13.9175 18.0533Z" fill="black"/>
</svg>
