<svg width="14" height="15" viewBox="0 0 14 15" fill="none" xmlns="http://www.w3.org/2000/svg">
<path fill-rule="evenodd" clip-rule="evenodd" d="M11.0833 2.26953C11.3777 2.26944 11.6612 2.3806 11.877 2.58074C12.0928 2.78087 12.225 3.05519 12.2471 3.3487L12.25 3.4362V9.26953C12.2501 9.56387 12.1389 9.84736 11.9388 10.0632C11.7387 10.279 11.4643 10.4112 11.1708 10.4333L11.0833 10.4362H9.91667V11.6029C9.91676 11.8972 9.8056 12.1807 9.60546 12.3965C9.40532 12.6123 9.13101 12.7445 8.8375 12.7666L8.75 12.7695H2.91667C2.62233 12.7696 2.33884 12.6585 2.12301 12.4583C1.90719 12.2582 1.77499 11.9839 1.75292 11.6904L1.75 11.6029V5.76953C1.74991 5.4752 1.86107 5.1917 2.06121 4.97588C2.26134 4.76006 2.53566 4.62786 2.82917 4.60578L2.91667 4.60286H4.08333V3.4362C4.08324 3.14186 4.1944 2.85837 4.39454 2.64255C4.59468 2.42672 4.86899 2.29452 5.1625 2.27245L5.25 2.26953H11.0833ZM8.75 5.76953H2.91667V11.6029H8.75V5.76953ZM11.0833 3.4362H5.25V4.60286H8.75L8.8375 4.60578C9.11527 4.62666 9.3764 4.74622 9.57368 4.94287C9.77097 5.13951 9.89139 5.40025 9.91317 5.67795L9.91667 5.76953V9.26953H11.0833V3.4362Z" fill="black"/>
</svg>
