<svg width="14" height="15" viewBox="0 0 14 15" fill="none" xmlns="http://www.w3.org/2000/svg">
<path d="M10.1064 3.39365L6.9996 6.50048L3.89368 3.39367L3.89367 3.39365C3.75821 3.25819 3.57448 3.18209 3.38292 3.18209C3.19135 3.18209 3.00763 3.25819 2.87217 3.39365C2.73671 3.52911 2.66061 3.71283 2.66061 3.9044C2.66061 4.09597 2.73671 4.27969 2.87217 4.41515L2.87219 4.41517L5.97898 7.52107L2.87219 10.627L2.87217 10.627C2.80509 10.6941 2.75189 10.7737 2.71559 10.8613L2.88564 10.9318L2.71559 10.8613C2.67929 10.949 2.66061 11.0429 2.66061 11.1377C2.66061 11.2326 2.67929 11.3265 2.71559 11.4141L2.88612 11.3435L2.71559 11.4141C2.75189 11.5018 2.80509 11.5814 2.87217 11.6485C3.00762 11.7839 3.19135 11.86 3.38292 11.86C3.47777 11.86 3.5717 11.8414 3.65933 11.8051C3.74697 11.7688 3.82659 11.7156 3.89367 11.6485L3.89368 11.6485L6.9996 8.54165L10.1064 11.6485L10.1065 11.6486C10.242 11.7839 10.4257 11.8598 10.6172 11.8597C10.8086 11.8596 10.9922 11.7834 11.1275 11.6479C11.2629 11.5125 11.3388 11.3288 11.3387 11.1373C11.3386 10.9458 11.2624 10.7623 11.127 10.627C11.127 10.6269 11.1269 10.6269 11.1269 10.6269L8.02019 7.52107L11.1269 4.41523C11.1269 4.41521 11.127 4.41519 11.127 4.41517C11.194 4.34818 11.2472 4.26865 11.2836 4.1811C11.3199 4.09353 11.3386 3.99966 11.3387 3.90484C11.3388 3.81003 11.3201 3.71614 11.2839 3.62852C11.2477 3.54091 11.1945 3.46128 11.1275 3.3942C11.0605 3.32711 10.981 3.27389 10.8934 3.23755C10.8058 3.20121 10.712 3.18248 10.6172 3.18242C10.5223 3.18236 10.4285 3.20098 10.3408 3.23721C10.2532 3.27344 10.1736 3.32657 10.1065 3.39357L10.1064 3.39365Z" fill="black" stroke="black" stroke-width="0.370192"/>
</svg>
