<svg width="92" height="92" viewBox="0 0 92 92" fill="none" xmlns="http://www.w3.org/2000/svg">
<g id="Group 91">
<path id="Subtract" fill-rule="evenodd" clip-rule="evenodd" d="M45.9996 90.7228C70.699 90.7228 90.7218 70.7 90.7218 46.0006C90.7218 21.3012 70.699 1.27838 45.9996 1.27838C21.3002 1.27838 1.27734 21.3012 1.27734 46.0006C1.27734 70.7 21.3002 90.7228 45.9996 90.7228ZM45.9996 80.5002C65.0532 80.5002 80.4992 65.0542 80.4992 46.0006C80.4992 26.9469 65.0532 11.5009 45.9996 11.5009C26.946 11.5009 11.5 26.9469 11.5 46.0006C11.5 65.0542 26.946 80.5002 45.9996 80.5002Z" fill="url(#paint0_linear_1302_1264)"/>
<g id="Subtract_2">
<path fill-rule="evenodd" clip-rule="evenodd" d="M45.9996 90.7228C70.699 90.7228 90.7218 70.7 90.7218 46.0006C90.7218 21.3012 70.699 1.27838 45.9996 1.27838C21.3002 1.27838 1.27734 21.3012 1.27734 46.0006C1.27734 70.7 21.3002 90.7228 45.9996 90.7228ZM45.9996 80.5002C65.0532 80.5002 80.4992 65.0542 80.4992 46.0006C80.4992 26.9469 65.0532 11.5009 45.9996 11.5009C26.946 11.5009 11.5 26.9469 11.5 46.0006C11.5 65.0542 26.946 80.5002 45.9996 80.5002Z" fill="url(#paint1_linear_1302_1264)" style="mix-blend-mode:luminosity"/>
</g>
<path id="Subtract_3" fill-rule="evenodd" clip-rule="evenodd" d="M45.9996 80.499C65.0532 80.499 80.4992 65.053 80.4992 45.9994C80.4992 26.9458 65.0532 11.4998 45.9996 11.4998C26.946 11.4998 11.5 26.9458 11.5 45.9994C11.5 65.053 26.946 80.499 45.9996 80.499ZM45.9988 77.9438C63.641 77.9438 77.9429 63.6419 77.9429 45.9997C77.9429 28.3575 63.641 14.0556 45.9988 14.0556C28.3565 14.0556 14.0547 28.3575 14.0547 45.9997C14.0547 63.6419 28.3565 77.9438 45.9988 77.9438Z" fill="url(#paint2_linear_1302_1264)"/>
<g id="Subtract_4">
<path fill-rule="evenodd" clip-rule="evenodd" d="M45.9996 80.499C65.0532 80.499 80.4992 65.053 80.4992 45.9994C80.4992 26.9458 65.0532 11.4998 45.9996 11.4998C26.946 11.4998 11.5 26.9458 11.5 45.9994C11.5 65.053 26.946 80.499 45.9996 80.499ZM45.9988 77.9438C63.641 77.9438 77.9429 63.6419 77.9429 45.9997C77.9429 28.3575 63.641 14.0556 45.9988 14.0556C28.3565 14.0556 14.0547 28.3575 14.0547 45.9997C14.0547 63.6419 28.3565 77.9438 45.9988 77.9438Z" fill="url(#paint3_linear_1302_1264)" fill-opacity="0.5" style="mix-blend-mode:luminosity"/>
</g>
<path id="Subtract_5" fill-rule="evenodd" clip-rule="evenodd" d="M46 92C71.4051 92 92 71.4051 92 46C92 20.5949 71.4051 0 46 0C20.5949 0 0 20.5949 0 46C0 71.4051 20.5949 92 46 92ZM45.9994 90.2967C70.4636 90.2967 90.2957 70.4646 90.2957 46.0004C90.2957 21.5362 70.4636 1.7041 45.9994 1.7041C21.5353 1.7041 1.70312 21.5362 1.70312 46.0004C1.70312 70.4646 21.5353 90.2967 45.9994 90.2967Z" fill="url(#paint4_linear_1302_1264)"/>
</g>
<defs>
<linearGradient id="paint0_linear_1302_1264" x1="14.5035" y1="1.65758" x2="75.8357" y2="87.4397" gradientUnits="userSpaceOnUse">
<stop stop-color="#4EB669"/>
<stop offset="1" stop-color="#217346"/>
</linearGradient>
<linearGradient id="paint1_linear_1302_1264" x1="66.444" y1="106.695" x2="27.4718" y2="1.27838" gradientUnits="userSpaceOnUse">
<stop/>
<stop offset="1" stop-color="#F7F7F7"/>
</linearGradient>
<linearGradient id="paint2_linear_1302_1264" x1="45.9996" y1="11.4998" x2="45.9996" y2="80.499" gradientUnits="userSpaceOnUse">
<stop stop-color="#217346"/>
<stop offset="1" stop-color="#33A852"/>
</linearGradient>
<linearGradient id="paint3_linear_1302_1264" x1="45.9996" y1="11.4998" x2="45.9996" y2="80.499" gradientUnits="userSpaceOnUse">
<stop/>
<stop offset="1" stop-color="#FEFEFE"/>
</linearGradient>
<linearGradient id="paint4_linear_1302_1264" x1="13.4167" y1="7.66667" x2="46" y2="92" gradientUnits="userSpaceOnUse">
<stop stop-color="#5BD57B"/>
<stop offset="0.37" stop-color="#217346"/>
</linearGradient>
</defs>
</svg>
